<svg width="1407" height="332" viewBox="0 0 1407 332" fill="none" xmlns="http://www.w3.org/2000/svg">
<path d="M1406.69 272.622V294.947H1234.02V50.7734H1401.46V73.0978H1259.84V159.954H1386.11V181.929H1259.84V272.622H1406.69Z" fill="#E3EBFF"/>
<path d="M1089.35 297.042C1065.17 297.042 1043.31 291.693 1023.77 280.996C1004.47 270.299 989.239 255.532 978.077 236.696C967.147 217.627 961.683 196.349 961.683 172.862C961.683 149.375 967.147 128.213 978.077 109.377C989.239 90.3083 1004.59 75.4254 1024.12 64.7283C1043.66 54.0312 1065.51 48.6826 1089.7 48.6826C1107.84 48.6826 1124.58 51.7057 1139.93 57.7519C1155.28 63.7981 1168.3 72.6348 1179 84.2621L1162.6 100.657C1143.53 81.3553 1119.47 71.7046 1090.4 71.7046C1071.1 71.7046 1053.54 76.123 1037.73 84.9598C1021.91 93.7965 1009.47 105.889 1000.4 121.237C991.565 136.585 987.146 153.793 987.146 172.862C987.146 191.931 991.565 209.139 1000.4 224.487C1009.47 239.835 1021.91 251.928 1037.73 260.764C1053.54 269.601 1071.1 274.02 1090.4 274.02C1119.7 274.02 1143.77 264.253 1162.6 244.719L1179 261.113C1168.3 272.741 1155.16 281.694 1139.58 287.972C1124.23 294.018 1107.49 297.042 1089.35 297.042Z" fill="#E3EBFF"/>
<path d="M889.814 229.717H753.773L724.472 294.947H697.613L809.236 50.7734H834.7L946.322 294.947H919.114L889.814 229.717ZM880.395 208.788L821.793 77.6325L763.192 208.788H880.395Z" fill="#E3EBFF"/>
<path d="M530.591 50.7734H556.404V272.622H693.142V294.947H530.591V50.7734Z" fill="#E3EBFF"/>
<path d="M344.717 297.042C320.532 297.042 298.557 291.693 278.79 280.996C259.256 270.066 243.908 255.183 232.746 236.347C221.816 217.511 216.351 196.349 216.351 172.862C216.351 149.375 221.816 128.213 232.746 109.377C243.908 90.5409 259.256 75.7742 278.79 65.0771C298.557 54.1474 320.532 48.6826 344.717 48.6826C368.902 48.6826 390.645 54.0312 409.947 64.7283C429.481 75.4254 444.829 90.3083 455.991 109.377C467.153 128.213 472.734 149.375 472.734 172.862C472.734 196.349 467.153 217.627 455.991 236.696C444.829 255.532 429.481 270.299 409.947 280.996C390.645 291.693 368.902 297.042 344.717 297.042ZM344.717 274.02C364.019 274.02 381.46 269.717 397.04 261.113C412.621 252.276 424.83 240.184 433.666 224.836C442.503 209.256 446.922 191.931 446.922 172.862C446.922 153.793 442.503 136.585 433.666 121.237C424.83 105.656 412.621 93.564 397.04 84.9598C381.46 76.123 364.019 71.7046 344.717 71.7046C325.416 71.7046 307.858 76.123 292.045 84.9598C276.465 93.564 264.14 105.656 255.07 121.237C246.233 136.585 241.815 153.793 241.815 172.862C241.815 191.931 246.233 209.256 255.07 224.836C264.14 240.184 276.465 252.276 292.045 261.113C307.858 269.717 325.416 274.02 344.717 274.02Z" fill="#E3EBFF"/>
<path d="M90.6934 297.042C72.5547 297.042 55.1137 294.135 38.3703 288.321C21.8594 282.507 9.06934 274.833 0 265.299L10.1158 245.416C18.9526 254.253 30.6962 261.462 45.3467 267.043C59.9972 272.392 75.1127 275.066 90.6934 275.066C112.553 275.066 128.947 271.113 139.877 263.206C150.807 255.067 156.272 244.602 156.272 231.812C156.272 222.046 153.249 214.255 147.202 208.442C141.389 202.628 134.18 198.21 125.575 195.187C116.971 191.931 104.995 188.443 89.6469 184.722C71.2757 180.071 56.6252 175.653 45.6955 171.467C34.7658 167.048 25.3476 160.421 17.441 151.584C9.76698 142.747 5.92995 130.771 5.92995 115.656C5.92995 103.331 9.18561 92.1687 15.6969 82.1692C22.2083 71.9372 32.2078 63.7981 45.6955 57.7519C59.1833 51.7057 75.9266 48.6826 95.9257 48.6826C109.879 48.6826 123.483 50.6593 136.738 54.6125C150.225 58.3333 161.853 63.5655 171.62 70.3094L162.899 90.8897C152.667 84.1459 141.737 79.1461 130.11 75.8905C118.483 72.4023 107.088 70.6582 95.9257 70.6582C74.5314 70.6582 58.3693 74.844 47.4396 83.2157C36.7425 91.3548 31.3939 101.936 31.3939 114.958C31.3939 124.725 34.3007 132.632 40.1144 138.678C46.1606 144.492 53.6021 149.026 62.4389 152.282C71.5082 155.305 83.6007 158.677 98.7163 162.398C116.622 166.816 131.04 171.234 141.97 175.653C153.132 179.838 162.55 186.35 170.225 195.187C177.899 203.791 181.736 215.534 181.736 230.417C181.736 242.742 178.364 254.021 171.62 264.253C165.108 274.252 154.993 282.275 141.272 288.321C127.552 294.135 110.692 297.042 90.6934 297.042Z" fill="#E3EBFF"/>
<path d="M473.036 -2.5834e-05L485.695 9.54638L242.577 331.94L229.918 322.394L473.036 -2.5834e-05Z" fill="#E3EBFF"/>
</svg>
