<svg width="780" height="760" viewBox="0 0 780 760" fill="none" xmlns="http://www.w3.org/2000/svg">
<path d="M361.367 225.949C450.798 225.949 523.367 301.573 523.367 394.949C523.367 488.325 450.798 563.949 361.367 563.949C271.936 563.949 199.367 488.325 199.367 394.949C199.367 301.573 271.936 225.949 361.367 225.949Z" stroke="#E2E3FF" stroke-width="2"/>
<path d="M361.367 204.949C263.096 204.949 183.367 287.74 183.367 389.949C183.367 492.158 263.096 574.949 361.367 574.949C459.638 574.949 539.367 492.158 539.367 389.949C539.367 287.74 459.638 204.949 361.367 204.949Z" stroke="#E2E3FF" stroke-width="2"/>
<path d="M538.224 450.95C518.779 555.834 423.582 624.487 325.699 604.452C227.816 584.417 164.103 483.238 183.547 378.354C202.991 273.47 298.189 204.817 396.072 224.852C493.955 244.887 557.668 346.066 538.224 450.95Z" stroke="#E2E3FF" stroke-width="2"/>
<path d="M166.516 451.777C187.832 566.389 292.198 641.424 399.524 619.527C506.85 597.629 576.694 487.05 555.378 372.438C534.063 257.827 429.697 182.791 322.371 204.688C215.045 226.585 145.2 337.165 166.516 451.777Z" stroke="#E2E3FF" stroke-width="2"/>
<path d="M424.924 634.586C576.365 599.676 670.402 456.388 635.12 314.638C599.838 172.887 448.547 86.1538 297.106 121.064C145.665 155.975 51.6276 299.262 86.9097 441.012C122.192 582.763 273.483 669.497 424.924 634.586Z" stroke="#E2E3FF" stroke-width="2"/>
<path d="M520.017 393.038C512.834 487.503 435.461 557.959 347.325 550.561C259.19 543.162 193.443 460.691 200.626 366.226C207.809 271.761 285.183 201.306 373.319 208.705C461.454 216.104 527.2 298.574 520.017 393.038Z" stroke="#E2E3FF" stroke-width="2"/>
<path d="M186.264 388.509C194.139 491.739 278.967 568.749 375.613 560.661C472.258 552.574 544.337 462.435 536.462 359.204C528.588 255.973 443.76 178.963 347.114 187.05C250.468 195.138 178.39 285.278 186.264 388.509Z" stroke="#E2E3FF" stroke-width="2"/>
<path d="M360.67 224.555C450.876 224.555 523.973 296.368 523.973 384.916C523.973 473.464 450.876 545.277 360.67 545.277C270.463 545.277 197.367 473.464 197.367 384.916C197.367 296.368 270.463 224.555 360.67 224.555Z" fill="#E2E3FF" stroke="#E2E3FF" stroke-width="2"/>
<path d="M312.001 588.54C214.15 559.85 156.526 454.717 183.356 353.682C210.187 252.647 311.29 194.052 409.141 222.741C506.993 251.431 564.617 356.564 537.787 457.599C510.956 558.634 409.853 617.229 312.001 588.54Z" stroke="#E2E3FF" stroke-width="2"/>
<path d="M413.787 602.141C521.073 570.786 584.245 455.888 554.831 345.477C525.417 235.067 414.574 171.026 307.287 202.381C200 233.736 136.827 348.635 166.242 459.045C195.656 569.455 306.5 633.496 413.787 602.141Z" stroke="#E2E3FF" stroke-width="2"/>
<path d="M551.145 369.84C565.324 430.781 553.509 496.871 524.298 546.542C495.086 596.216 448.59 629.312 393.442 624.682C338.185 620.043 278.006 577.933 232.723 521.962C187.448 466.001 157.293 396.465 161.793 337.279C166.294 278.084 203.874 218.185 254.302 174.223C304.735 130.257 367.81 102.411 423.096 107.052C478.246 111.682 512.483 147.44 531.847 197.045C551.226 246.687 555.642 310.074 551.121 369.538L551.109 369.69L551.145 369.84Z" stroke="#E2E3FF" stroke-width="2"/>
<path d="M153.062 363.14C137.517 429.732 150.469 501.948 182.491 556.226C214.515 610.505 265.497 646.689 325.981 641.627C386.574 636.557 452.543 590.534 502.174 529.386C551.797 468.246 584.858 392.266 579.924 327.582C574.989 262.889 533.79 197.438 478.517 149.406C423.239 101.37 354.092 70.936 293.47 76.0088C232.983 81.0705 195.44 120.167 174.212 174.373C152.968 228.618 148.129 297.873 153.084 362.835L153.096 362.989L153.062 363.14Z" stroke="#E2E3FF" stroke-width="2"/>
<path d="M349.946 637.712C269.874 614.233 202.781 586.2 159.929 548.233C138.516 529.262 123.185 507.835 115.292 483.279C107.4 458.726 106.918 430.964 115.332 399.281C132.149 335.953 189.511 275.043 258.195 234.468C326.886 193.89 406.595 173.828 467.927 191.81C529.058 209.734 561.452 270.533 574.298 343.131C587.135 415.68 580.364 499.644 563.486 563.2C555.054 594.955 544.242 616.831 531.145 631.469C518.07 646.083 502.667 653.538 484.92 656.368C467.139 659.203 446.989 657.398 424.447 653.441C401.901 649.482 377.109 643.4 349.946 637.712Z" stroke="#E2E3FF" stroke-width="2"/>
<path d="M711.742 383.571C682.169 488.134 645.059 576.244 591.747 633.643C565.104 662.327 534.428 683.328 498.624 694.892C462.816 706.457 421.808 708.607 374.477 699.484C279.856 681.244 186.358 610.508 122.192 524.129C58.0081 437.724 23.3857 335.963 46.052 255.809C68.6572 175.873 156.394 130.679 262.723 110.092C368.957 89.5236 493.246 93.6348 588.074 111.914C635.468 121.05 668.491 133.812 690.983 149.96C713.448 166.089 725.443 185.62 730.743 208.398C736.051 231.211 734.654 257.323 730.238 286.616C725.821 315.914 718.415 348.235 711.742 383.571Z" stroke="#E2E3FF" stroke-width="2"/>
<path d="M372.402 655.859C460.154 630.21 533.698 599.584 580.676 558.095C604.151 537.362 620.965 513.941 629.62 487.097C638.275 460.257 638.801 429.913 629.577 395.29C611.14 326.083 548.258 259.532 472.978 215.203C397.693 170.871 310.315 148.943 243.068 168.597C176.02 188.192 140.51 254.657 126.431 333.969C112.361 413.235 119.782 504.966 138.28 574.403C147.523 609.098 159.376 633.009 173.742 649.013C188.085 664.993 204.984 673.145 224.451 676.239C243.953 679.339 266.047 677.364 290.753 673.04C315.463 668.716 342.639 662.072 372.402 655.859Z" stroke="#E2E3FF" stroke-width="2"/>
<path d="M727.323 345.742C683.966 233.928 641.881 142.119 585.411 85.1643C557.202 56.7132 525.429 36.9877 488.126 27.8046C450.811 18.6188 407.869 19.9578 357.304 33.7889C256.244 61.4322 162.013 146.312 101.381 245.875C40.7349 345.461 13.8851 459.431 47.1199 545.146C80.2828 630.676 172.979 671.464 283.133 683.875C393.232 696.279 520.362 680.267 621.646 652.562C672.259 638.718 706.85 622.085 729.618 602.609C752.362 583.154 763.345 560.832 766.687 535.506C770.035 510.145 765.725 481.733 757.794 450.104C749.862 418.471 738.352 383.775 727.323 345.742Z" stroke="#E2E3FF" stroke-width="2"/>
<path d="M353.509 185.949C433.979 189.487 477.324 216.619 500.631 254.348C523.999 292.176 527.367 340.864 527.367 387.84C527.367 481.216 447.311 556.949 357.304 556.949C267.351 556.949 194.367 481.271 194.367 387.84C194.367 341.092 211.697 290.575 240.302 251.757C268.906 212.94 308.672 185.958 353.509 185.949Z" stroke="#E2E3FF" stroke-width="2"/>
<path d="M367.927 162.949C279.743 166.792 232.223 196.262 206.67 237.26C181.056 278.355 177.367 331.241 177.367 382.246C177.367 483.674 265.107 565.949 363.771 565.949C462.381 565.949 542.367 483.729 542.367 382.246C542.367 331.471 523.376 276.603 492.029 234.441C460.683 192.281 417.092 162.958 367.927 162.949Z" stroke="#E2E3FF" stroke-width="2"/>
<path d="M536.726 390.885C527.194 471.999 498.219 513.678 460.801 534.245C423.293 554.861 377.069 554.409 332.697 550.684C244.581 543.286 179.152 456.388 186.078 365.306C192.999 274.281 270.132 206.547 358.3 213.949C402.431 217.653 448.801 239.169 483.264 271.164C517.721 303.154 540.17 345.512 536.726 390.885Z" stroke="#E2E3FF" stroke-width="2"/>
<path d="M168.758 378.979C179.46 470.93 211.369 518.287 252.486 541.732C293.686 565.225 344.371 564.865 392.995 560.796C489.588 552.713 561.1 454.461 553.222 351.173C545.347 247.942 460.519 170.932 363.873 179.019C315.498 183.067 264.722 207.288 227.031 243.427C189.345 279.559 164.837 327.505 168.758 378.979Z" stroke="#E2E3FF" stroke-width="2"/>
<path d="M206.747 265.182C264.211 195.912 315.411 175.623 361.494 180.339C407.678 185.066 448.991 214.918 486.646 246.611C561.474 309.591 567.936 431.98 506.795 512.184C445.688 592.343 335.451 606.172 260.582 543.158C223.112 511.621 194.37 462.116 182.657 410.458C170.945 358.806 176.284 305.154 206.747 265.182Z" stroke="#E2E3FF" stroke-width="2"/>
<path d="M529.576 248.772C466.592 173.09 410.456 150.905 359.916 156.061C309.276 161.227 263.983 193.855 222.718 228.474C140.671 297.309 133.594 431.064 200.622 518.71C267.616 606.31 388.478 621.426 470.566 552.557C511.645 518.093 543.153 463.996 555.994 407.548C568.833 351.106 562.983 292.465 529.576 248.772Z" stroke="#E2E3FF" stroke-width="2"/>
<path d="M518.884 240.599C579.441 322.336 589.789 386.26 574.879 438.86C559.94 491.563 519.583 533.172 478.105 570.109C395.618 643.567 265.303 624.683 194.008 536.292C122.749 447.945 131.945 316.753 214.473 243.259C255.77 206.483 314.108 183.734 371.039 181.25C427.965 178.765 483.338 196.539 518.884 240.599Z" stroke="#E2E3FF" stroke-width="2"/>
<path d="M188.727 221.92C122.354 311.222 110.999 381.081 127.349 438.579C143.729 496.179 187.975 541.647 233.429 581.996C323.868 662.278 466.731 641.633 544.888 545.046C623.008 448.502 612.929 305.133 522.45 224.815C477.177 184.627 413.227 159.77 350.819 157.055C288.417 154.34 227.704 173.762 188.727 221.92Z" stroke="#E2E3FF" stroke-width="2"/>
<path d="M387.534 162.949C436.047 162.949 473.482 194.653 498.843 239.236C524.2 283.814 537.367 341.093 537.367 391.761C537.367 442.588 533.39 489.84 509.523 524.399C485.721 558.866 441.942 580.949 361.7 580.949C264.291 580.949 184.367 492.914 184.367 391.761C184.367 340.991 190.828 283.78 219.417 239.282C247.951 194.87 298.644 162.949 387.534 162.949Z" stroke="#E2E3FF" stroke-width="2"/>
<path d="M331.646 137.949C278.436 137.949 237.39 172.556 209.593 221.187C181.798 269.813 167.367 332.288 167.367 387.553C167.367 442.978 171.723 494.53 197.894 532.242C224 569.862 272.009 593.949 359.954 593.949C466.756 593.949 554.367 497.897 554.367 387.553C554.367 332.186 547.288 269.779 515.946 221.232C484.66 172.771 429.078 137.949 331.646 137.949Z" stroke="#E2E3FF" stroke-width="2"/>
<path d="M576.054 500.142C565.833 555.277 524.448 590.917 472.092 610.056C419.73 629.197 356.542 631.763 303.099 620.824C249.492 609.851 200.479 595.141 169.033 560.595C137.648 526.118 123.555 471.629 140.437 380.566C160.949 269.925 270.715 198.305 377.381 220.137C430.929 231.098 489.921 250.776 530.856 292.821C571.727 334.8 594.759 399.25 576.054 500.142Z" stroke="#E2E3FF" stroke-width="2"/>
<path d="M450.928 46.7622C527.456 57.5954 579.16 111.026 608.876 179.834C638.596 248.652 646.255 332.728 634.73 404.503C623.178 476.447 606.185 542.563 560.745 586.281C515.363 629.943 441.353 651.483 315.204 633.626C161.776 611.906 56.1959 469.175 79.2076 325.863C90.7499 253.981 113.911 174.341 169.008 117.614C223.616 61.3903 309.772 27.5052 447.661 46.3086L450.928 46.7622Z" stroke="#E2E3FF" stroke-width="2"/>
<path d="M126.029 499.447C137.607 561.701 183.289 602.164 240.867 624.095C298.454 646.03 367.812 649.362 426.387 637.411C485.13 625.426 538.835 609.195 573.139 570.475C607.388 531.817 622.504 470.479 603.398 367.749C580.172 242.871 459.211 161.408 342.295 185.262C283.613 197.235 218.995 218.994 174.332 266.092C129.727 313.127 104.858 385.618 126.029 499.447Z" stroke="#E2E3FF" stroke-width="2"/>
<path d="M498.64 719C589.948 700.586 646.809 639.278 675.531 563.769C704.262 488.24 704.804 398.57 683.491 323.661C662.128 248.575 634.808 180.142 575.48 137.972C516.183 95.8244 424.612 79.7175 274.275 110.035C91.2867 146.938 -21.2244 307.668 21.3199 457.198C42.6653 532.22 78.8217 614.411 151.138 669.474C223.407 724.501 332.018 752.602 498.64 719Z" stroke="#E2E3FF" stroke-width="2"/>
<path d="M217.576 568.575C173.662 537.303 158.208 484.65 161.134 428.243C164.06 371.836 185.372 311.864 214.752 266.314C273.382 175.416 392.383 152.625 480.547 215.411C568.711 278.196 592.652 402.781 534.023 493.678C504.586 539.317 465.569 586.595 413.91 608.199C362.338 629.765 297.964 625.823 217.576 568.575Z" stroke="#E2E3FF" stroke-width="2"/>
<path d="M517.412 580.329C565.572 546.141 582.512 488.586 579.305 426.952C576.097 365.316 552.736 299.79 520.531 250.02C456.254 150.686 325.79 125.778 229.131 194.392C132.472 263.006 106.225 399.157 170.502 498.492C202.764 548.349 245.532 600.013 302.168 623.622C358.718 647.195 429.296 642.878 517.412 580.329Z" stroke="#E2E3FF" stroke-width="2"/>
<path d="M613.116 154.239C559.492 93.7937 491.807 71.731 419.684 75.7932C347.483 79.8599 270.776 110.118 199.326 154.46C127.953 198.753 66.6735 266.887 36.6864 339.071C6.69803 411.258 8.05532 487.339 61.617 547.714C168.962 668.713 371.584 695.133 514.202 606.626C585.69 562.261 659.254 504.201 690.539 429.749C721.788 355.384 710.925 264.489 613.116 154.239Z" stroke="#E2E3FF" stroke-width="2"/>
<path d="M557.884 314.847C566.407 344.236 565.559 380.383 550.661 424.749C526.072 497.977 492.732 534.941 453.662 552.666C414.525 570.421 369.456 568.969 321.14 564.913C225.148 556.854 153.555 466.959 161.384 363.994C169.213 261.029 253.481 184.219 349.474 192.277C397.711 196.327 462.94 210.243 508.622 245.247C531.441 262.732 549.361 285.462 557.884 314.847Z" stroke="#E2E3FF" stroke-width="2"/>
<path d="M145.089 303.063C135.743 335.188 136.676 374.692 153.005 423.168C179.956 503.174 216.505 543.577 259.352 562.953C302.266 582.36 351.679 580.769 404.625 576.338C509.88 567.53 588.366 469.281 579.784 356.765C571.201 244.249 478.817 160.297 373.561 169.105C320.694 173.529 249.19 188.733 199.107 226.987C174.087 246.097 154.435 270.942 145.089 303.063Z" stroke="#E2E3FF" stroke-width="2"/>
<path d="M145.619 309.776C154.982 277.954 176.666 246.061 215.709 215.773C280.148 165.783 331.468 153.905 376.815 162.973C422.238 172.055 461.858 202.178 502.858 236.686C584.395 305.312 596.568 431.766 529.962 519.139C463.356 606.512 343.255 621.636 261.718 553.01C220.775 518.55 170.284 464.368 149.544 403.742C139.183 373.455 136.257 341.595 145.619 309.776Z" stroke="#E2E3FF" stroke-width="2"/>
<path d="M597.556 297.514C587.289 262.73 563.514 227.877 520.717 194.782C450.088 140.165 393.822 127.177 344.095 137.088C294.292 147.015 250.858 179.935 205.929 217.63C116.534 292.629 103.192 430.822 176.212 526.302C249.232 621.783 380.903 638.315 470.298 563.316C515.17 525.669 570.518 466.469 593.255 400.218C604.614 367.119 607.823 332.296 597.556 297.514Z" stroke="#E2E3FF" stroke-width="2"/>
<path d="M478.079 155.28C509.589 173.034 538.507 205.132 561.988 257.056C600.738 342.746 602.194 404.994 582.86 455.791C563.498 506.664 523.225 546.242 478.064 586.46C388.192 666.494 252.368 653.381 174.7 557.088C97.032 460.796 106.989 317.861 196.861 237.827C241.966 197.659 309.908 150.628 378.236 139.579C412.374 134.059 446.571 137.526 478.079 155.28Z" stroke="#E2E3FF" stroke-width="2"/>
<path d="M232.428 128.695C197.877 148.101 166.176 183.18 140.438 239.913C97.965 333.533 96.3631 401.558 117.562 457.079C138.791 512.675 182.941 555.923 232.43 599.854C330.958 687.316 479.86 672.983 565.004 567.759C650.147 462.536 639.235 306.339 540.707 218.878C491.273 174.996 416.803 123.607 341.9 111.534C304.474 105.502 266.977 109.29 232.428 128.695Z" stroke="#E2E3FF" stroke-width="2"/>
</svg>
