<svg width="1919" height="1509" viewBox="0 0 1919 1509" fill="none" xmlns="http://www.w3.org/2000/svg">
<mask id="mask0_162_1940" style="mask-type:alpha" maskUnits="userSpaceOnUse" x="0" y="0" width="1919" height="1509">
<rect width="1919" height="1509" fill="#E2E3FF"/>
</mask>
<g mask="url(#mask0_162_1940)">
<path d="M-536.564 327.086C-454.023 291.772 -235.377 225.648 -21.1146 243.667C246.714 266.191 425.93 381.762 601.494 332.334C777.058 282.906 710.926 257.649 788.673 266.711C866.421 275.773 1052.1 282.925 1224.08 241.071C1396.06 199.217 1686.05 101.063 1956.59 120.911" stroke="#E2E3FF" stroke-width="2"/>
<path d="M-15.1946 158.019C-41.4592 198.03 -27.9364 271.088 236.272 243.233C566.533 208.415 565.287 302.198 644.249 286.546C707.418 274.024 771.177 271.267 795.16 271.454C911.659 292.613 1236.5 277.904 1508.36 188.197C1780.21 98.4905 1892.07 145.249 1914.02 179.841" stroke="#E2E3FF" stroke-width="2"/>
<path d="M-233.072 196.28C-240.03 262.505 -186.62 390.851 82.6827 374.435C419.31 353.915 323.514 266.098 520.07 272.732C677.315 278.04 761.349 278.479 783.71 278.035C822.937 270.328 947.85 252.537 1133.69 243.034C1365.99 231.155 1506.94 230.969 1657.84 181.819C1808.73 132.669 1951.82 36.4972 2019.13 48.2896" stroke="#E2E3FF" stroke-width="2"/>
<path d="M-69.8423 760.783C-16.9565 769.348 140.622 780.526 347.852 756.713C606.89 726.948 723.476 620.503 1109.02 624.007C1494.56 627.511 1344.5 541.026 1817.53 580.255C2195.96 611.637 2332.82 592.737 2353.96 579.364" stroke="#E2E3FF" stroke-width="2"/>
<path d="M2050.46 1452.86C2006.1 1430.51 1870.74 1377.86 1684.14 1345.99C1450.89 1306.16 1325.17 1378.54 988.667 1272.86C652.162 1167.17 764.161 1290.93 359.085 1127.36C35.0241 996.504 -88.9249 978.538 -110.392 985.912" stroke="#E2E3FF" stroke-width="2"/>
<path d="M-90.8644 808.761C-86.7989 821.547 -4.58024 829.948 291.771 761.265C662.21 675.41 802.338 804.213 985.022 754.955C1167.71 705.698 1367.55 628.936 1700.26 615.427C1966.42 604.62 2168.61 527.086 2236.43 489.669" stroke="#E2E3FF" stroke-width="2"/>
<path d="M2079.54 1411.86C2078.84 1398.38 2008.78 1368.41 1734.22 1356.45C1391.01 1341.5 1297.13 1179.32 1126.33 1178.66C955.534 1178 763.59 1199.48 469.519 1124.33C234.262 1064.21 40.1023 1085.82 -27.5704 1104.14" stroke="#E2E3FF" stroke-width="2"/>
<path d="M-82.6071 693.803C-66.4559 712.95 1.21094 744.94 142.669 719.718C319.492 688.191 214.904 755.051 300.336 758.814C385.769 762.577 539.943 702.731 684.975 757.764C830.007 812.796 1183.35 555.817 1434.83 536.573C1636.02 521.179 2060.11 543.567 2247 556.686" stroke="#E2E3FF" stroke-width="2"/>
<path d="M2046.7 1521.25C2036.84 1498.38 2024.84 1493.14 1895.08 1453.76C1740.09 1406.71 1873.76 1383.76 1726.18 1356.55C1646.9 1341.94 1504.06 1347.42 1389.45 1255.53C1274.84 1163.64 908.441 1319.32 684.149 1271.28C504.715 1232.85 681.03 1155.58 -21.8813 1036.29" stroke="#E2E3FF" stroke-width="2"/>
<path d="M-56.7749 885.401C-45.1532 869.415 14.3884 829.3 159.582 796.734C304.776 764.167 341.43 745.478 341.608 740.204C477.389 742.741 780.898 739.002 908.695 703.747C1068.44 659.678 1395.04 731.851 1634.51 693.642C1706.18 682.207 2175.59 530.732 2286.17 540.034" stroke="#E2E3FF" stroke-width="2"/>
<path d="M2066.81 1328.44C2053.08 1340.87 1992.05 1364.01 1857.77 1357.1C1723.49 1350.18 1687.26 1358.6 1685.92 1363.67C1567.7 1325.19 1301.35 1248.3 1181.69 1248.61C1032.12 1249 762.487 1092.3 544.471 1065.86C479.226 1057.94 34.8107 1080.43 -59.8546 1042.07" stroke="#E2E3FF" stroke-width="2"/>
<path d="M-81.2961 716.049C-59.5064 726.114 10.1138 746.125 114.278 745.646C218.441 745.167 288.808 757.104 310.97 763.132C339.759 766.342 430.294 755.025 562.123 684.069C726.911 595.374 1062.32 704.586 1274.82 668.631C1487.32 632.676 1751.78 714.778 1915.81 659.698C2047.04 615.635 2216.44 574.095 2284.73 558.833" stroke="#E2E3FF" stroke-width="2"/>
<path d="M2050.51 1499.31C2033.69 1483.76 1977.25 1445.87 1886.01 1418.7C1794.78 1391.53 1735.88 1361.28 1717.84 1349.54C1693.37 1338.79 1611.64 1325.76 1480.5 1359.65C1316.57 1402.02 1047.49 1207.04 853.57 1185.56C659.652 1164.08 626.053 1078.82 470.276 1088.76C345.654 1096.71 8.73876 1027.5 -54.4114 1024.2" stroke="#E2E3FF" stroke-width="2"/>
<path d="M-256.278 469.774C-153.89 490.296 118.163 521.984 387.269 484.554C723.651 437.766 890.065 477.421 1044.51 464.309C1168.07 453.82 1436.52 433.805 1555.29 425.108C1584.81 420.187 1669.53 411.811 1772.3 417.681C1900.76 425.018 1920.24 382.839 1998.52 375.573C2061.15 369.76 2127.33 355.481 2152.59 349.068" stroke="#E2E3FF" stroke-width="2"/>
<path d="M-191.39 532.309C-195.716 526.424 -143.143 509.208 101.754 487.429C407.877 460.204 488.951 502.891 737.479 477.599C986.008 452.308 1345.91 466.549 1452.81 445.081C1559.72 423.612 1535.79 412.186 1600.88 420.453C1665.98 428.721 1839.19 347.452 2075.72 384.011C2264.94 413.257 2220.9 385.027 2175.22 367.255" stroke="#E2E3FF" stroke-width="2"/>
<path d="M-244.332 456.606C-223.349 467.518 -100.958 484.49 220.744 465.084C622.872 440.827 507.281 391.49 763.537 401.546C1019.79 411.602 1221.89 441.089 1321.76 430.947C1401.66 422.834 1520.53 426.976 1569.98 430.061C1727.65 372.393 1891.19 394.758 1940.57 409.462C1989.96 424.167 2090.43 388.329 2134.49 368.571" stroke="#E2E3FF" stroke-width="2"/>
<path d="M-256.917 432.13C-243.088 438.953 -169.549 444.347 13.9771 411.339C243.385 370.08 379.364 449.275 599.539 437.772C819.713 426.268 1004.29 372.681 1237.49 397.939C1424.05 418.146 1540.94 426.4 1580.98 422.349C1748.13 345.198 1939.04 417.13 2084.41 369.456C2229.78 321.782 2240.61 311.823 2227.85 312.802L2220.63 302.982" stroke="#E2E3FF" stroke-width="2"/>
<path d="M-296.628 385.47C-223.537 410.22 0.301533 453.761 310.924 429.921C699.202 400.122 820.318 448.635 1035.96 429.174C1208.48 413.604 1451.14 420.461 1550.9 425.836C1634.32 399.985 1755.14 406.917 1888.49 382.043C2055.19 350.95 1986.14 324.642 2094.2 332.152" stroke="#E2E3FF" stroke-width="2"/>
<path d="M1935.25 786.702C1897.41 812.497 1755.96 869.286 1492.88 890.073C1229.8 910.859 1054.46 941.16 935.176 940.279C775.079 947.132 432.444 954.509 342.683 929.188C230.482 897.536 -166.875 865.515 -277.292 876.599C-468.049 895.749 -720.615 1005.27 -999.25 966.325C-1222.16 935.169 -1253.51 932.579 -1241.32 935.178M2214.69 843.046C2204.58 869.85 2090.3 924.725 1714.05 929.791C1243.75 936.124 1529.24 939.261 973.482 939.763C417.728 940.264 544.716 923.566 341.2 897.289C137.684 871.012 -177.329 965.621 -343.127 971.999C-508.925 978.377 -765.382 1004.21 -1119.26 995.714" stroke="#E2E3FF" stroke-width="2"/>
<path d="M2240.23 971.305C2231.07 957.297 2109.52 933.995 1696.66 952.854C1283.79 971.714 1078.64 935.406 942.515 937.239C813.402 937.315 516.085 948.135 316.258 971.441C66.4739 1000.57 38.5552 949.411 -243.133 978.973C-468.484 1002.62 -928.301 1027.82 -1130.04 1037.47" stroke="#E2E3FF" stroke-width="2"/>
<path d="M1947.62 770.152C2040.14 782.743 1638.63 851.186 1372.11 902.596C1105.6 954.006 999.324 947.28 976.059 941.228C835.246 940.357 506.607 954.267 346.096 986.981C145.456 1027.87 -461.26 954.679 -641.292 975.368C-785.318 991.92 -1001.3 1017.85 -1091.29 1028.75" stroke="#E2E3FF" stroke-width="2"/>
<path d="M2242.56 1021.31C1796.53 940.573 1169.57 928.827 960.862 940.018C699.976 954.007 429.504 899.055 150.466 934.241C-128.571 969.427 -626.323 919.557 -796.029 928.128C-931.795 934.985 -1110.38 966.024 -1182.7 980.687" stroke="#E2E3FF" stroke-width="2"/>
<path d="M2236.99 901.508C2166.28 905.185 1972.72 906.701 1764.11 883.357C1555.5 860.014 1165.81 911.573 997.044 940.27C868.308 945.817 557.939 953.374 346.354 939.224C81.8731 921.536 -306.876 974.989 -421.434 980.618C-535.991 986.247 -1068.25 971.347 -1086.16 951.974" stroke="#E2E3FF" stroke-width="2"/>
</g>
</svg>
