<svg width="1645" height="600" viewBox="0 0 1645 600" fill="none" xmlns="http://www.w3.org/2000/svg">
<path d="M1525.69 406.622V428.947H1353.02V184.773H1520.46V207.098H1378.84V293.954H1505.11V315.929H1378.84V406.622H1525.69Z" fill="#E3EBFF"/>
<path d="M1208.35 431.042C1184.17 431.042 1162.31 425.693 1142.77 414.996C1123.47 404.299 1108.24 389.532 1097.08 370.696C1086.15 351.627 1080.68 330.349 1080.68 306.862C1080.68 283.375 1086.15 262.213 1097.08 243.377C1108.24 224.308 1123.59 209.425 1143.12 198.728C1162.66 188.031 1184.51 182.683 1208.7 182.683C1226.84 182.683 1243.58 185.706 1258.93 191.752C1274.28 197.798 1287.3 206.635 1298 218.262L1281.6 234.657C1262.53 215.355 1238.47 205.705 1209.4 205.705C1190.1 205.705 1172.54 210.123 1156.73 218.96C1140.91 227.797 1128.47 239.889 1119.4 255.237C1110.56 270.585 1106.15 287.793 1106.15 306.862C1106.15 325.931 1110.56 343.139 1119.4 358.487C1128.47 373.835 1140.91 385.928 1156.73 394.764C1172.54 403.601 1190.1 408.02 1209.4 408.02C1238.7 408.02 1262.77 398.253 1281.6 378.719L1298 395.113C1287.3 406.741 1274.16 415.694 1258.58 421.972C1243.23 428.018 1226.49 431.042 1208.35 431.042Z" fill="#E3EBFF"/>
<path d="M1008.81 363.717H872.773L843.472 428.947H816.613L928.236 184.773H953.7L1065.32 428.947H1038.11L1008.81 363.717ZM999.395 342.788L940.793 211.632L882.192 342.788H999.395Z" fill="#E3EBFF"/>
<path d="M649.592 184.773H675.405V406.622H812.142V428.947H649.592V184.773Z" fill="#E3EBFF"/>
<path d="M463.717 431.042C439.532 431.042 417.556 425.693 397.79 414.996C378.256 404.066 362.907 389.183 351.745 370.347C340.815 351.511 335.351 330.349 335.351 306.862C335.351 283.375 340.815 262.213 351.745 243.377C362.907 224.541 378.256 209.774 397.79 199.077C417.556 188.147 439.532 182.683 463.717 182.683C487.902 182.683 509.645 188.031 528.946 198.728C548.48 209.425 563.828 224.308 574.99 243.377C586.153 262.213 591.734 283.375 591.734 306.862C591.734 330.349 586.153 351.627 574.99 370.696C563.828 389.532 548.48 404.299 528.946 414.996C509.645 425.693 487.902 431.042 463.717 431.042ZM463.717 408.02C483.018 408.02 500.459 403.717 516.04 395.113C531.62 386.276 543.829 374.184 552.666 358.836C561.503 343.256 565.921 325.931 565.921 306.862C565.921 287.793 561.503 270.585 552.666 255.237C543.829 239.656 531.62 227.564 516.04 218.96C500.459 210.123 483.018 205.705 463.717 205.705C444.415 205.705 426.858 210.123 411.045 218.96C395.464 227.564 383.139 239.656 374.07 255.237C365.233 270.585 360.815 287.793 360.815 306.862C360.815 325.931 365.233 343.256 374.07 358.836C383.139 374.184 395.464 386.276 411.045 395.113C426.858 403.717 444.415 408.02 463.717 408.02Z" fill="#E3EBFF"/>
<path d="M209.693 431.042C191.555 431.042 174.114 428.135 157.37 422.321C140.859 416.507 128.069 408.833 119 399.299L129.116 379.416C137.953 388.253 149.696 395.462 164.347 401.043C178.997 406.392 194.113 409.066 209.693 409.066C231.553 409.066 247.947 405.113 258.877 397.206C269.807 389.067 275.272 378.602 275.272 365.812C275.272 356.046 272.249 348.255 266.202 342.442C260.389 336.628 253.18 332.21 244.575 329.187C235.971 325.931 223.995 322.443 208.647 318.722C190.276 314.071 175.625 309.653 164.696 305.467C153.766 301.048 144.348 294.421 136.441 285.584C128.767 276.747 124.93 264.771 124.93 249.656C124.93 237.331 128.186 226.169 134.697 216.169C141.208 205.937 151.208 197.798 164.696 191.752C178.183 185.706 194.927 182.683 214.926 182.683C228.879 182.683 242.483 184.659 255.738 188.613C269.225 192.333 280.853 197.566 290.62 204.309L281.899 224.89C271.667 218.146 260.737 213.146 249.11 209.89C237.483 206.402 226.088 204.658 214.926 204.658C193.531 204.658 177.369 208.844 166.44 217.216C155.742 225.355 150.394 235.936 150.394 248.958C150.394 258.725 153.301 266.632 159.114 272.678C165.161 278.492 172.602 283.026 181.439 286.282C190.508 289.305 202.601 292.677 217.716 296.398C235.622 300.816 250.04 305.234 260.97 309.653C272.132 313.838 281.55 320.35 289.225 329.187C296.899 337.791 300.736 349.534 300.736 364.417C300.736 376.742 297.364 388.021 290.62 398.253C284.108 408.252 273.993 416.275 260.272 422.321C246.552 428.135 229.692 431.042 209.693 431.042Z" fill="#E3EBFF"/>
<path d="M592.036 134L604.695 143.546L361.577 465.94L348.918 456.394L592.036 134Z" fill="#E3EBFF"/>
</svg>
