<svg width="12332" height="911" viewBox="0 0 12332 911" fill="none" xmlns="http://www.w3.org/2000/svg">
<path d="M10526 721.5C10526 726.747 10521.7 731 10516.5 731C10511.3 731 10507 726.747 10507 721.5C10507 716.253 10511.3 712 10516.5 712C10521.7 712 10526 716.253 10526 721.5Z" fill="#E2E3FF"/>
<path d="M10594 721.5C10594 726.747 10589.5 731 10584 731C10578.5 731 10574 726.747 10574 721.5C10574 716.253 10578.5 712 10584 712C10589.5 712 10594 716.253 10594 721.5Z" fill="#E2E3FF"/>
<path d="M10740 721.5C10740 726.747 10736 731 10731 731C10726 731 10722 726.747 10722 721.5C10722 716.253 10726 712 10731 712C10736 712 10740 716.253 10740 721.5Z" fill="#E2E3FF"/>
<path d="M11155 721.5C11155 726.747 11151 731 11146 731C11141 731 11137 726.747 11137 721.5C11137 716.253 11141 712 11146 712C11151 712 11155 716.253 11155 721.5Z" fill="#E2E3FF"/>
<path d="M10406 724C10406 744.987 10389 762 10368 762C10347 762 10330 744.987 10330 724C10330 703.013 10347 686 10368 686C10389 686 10406 703.013 10406 724Z" fill="#E2E3FF"/>
<path d="M11255.7 722.707C11256.1 722.317 11256.1 721.683 11255.7 721.293L11249.3 714.929C11249 714.538 11248.3 714.538 11247.9 714.929C11247.5 715.319 11247.5 715.953 11247.9 716.343L11253.6 722L11247.9 727.657C11247.5 728.047 11247.5 728.681 11247.9 729.071C11248.3 729.462 11249 729.462 11249.3 729.071L11255.7 722.707ZM10367 722V723H11255V722V721H10367V722Z" fill="#E2E3FF"/>
<path d="M10525.8 721.666C10525.8 726.855 10521.6 731.062 10516.4 731.062C10511.2 731.062 10507 726.855 10507 721.666C10507 716.476 10511.2 712.27 10516.4 712.27C10521.6 712.27 10525.8 716.476 10525.8 721.666Z" fill="#E2E3FF"/>
<path d="M10488.3 240.675C10488.3 244.814 10484.9 248.17 10480.8 248.17C10476.6 248.17 10473.3 244.814 10473.3 240.675C10473.3 236.535 10476.6 233.18 10480.8 233.18C10484.9 233.18 10488.3 236.535 10488.3 240.675Z" fill="#E2E3FF"/>
<path d="M10938 494.143C10938 498.283 10934.6 501.639 10930.5 501.639C10926.3 501.639 10923 498.283 10923 494.143C10923 490.004 10926.3 486.648 10930.5 486.648C10934.6 486.648 10938 490.004 10938 494.143Z" fill="#E2E3FF"/>
<path d="M10826.2 844.366C10826.2 848.506 10822.9 851.861 10818.7 851.861C10814.6 851.861 10811.2 848.506 10811.2 844.366C10811.2 840.227 10814.6 836.871 10818.7 836.871C10822.9 836.871 10826.2 840.227 10826.2 844.366Z" fill="#E2E3FF"/>
<path d="M11160.1 653.585C11160.1 657.724 11156.7 661.08 11152.6 661.08C11148.5 661.08 11145.1 657.724 11145.1 653.585C11145.1 649.445 11148.5 646.09 11152.6 646.09C11156.7 646.09 11160.1 649.445 11160.1 653.585Z" fill="#E2E3FF"/>
<path d="M10593.5 721.666C10593.5 726.855 10589.3 731.062 10584.1 731.062C10578.9 731.062 10574.7 726.855 10574.7 721.666C10574.7 716.476 10578.9 712.27 10584.1 712.27C10589.3 712.27 10593.5 716.476 10593.5 721.666Z" fill="#E2E3FF"/>
<path d="M10740.1 721.666C10740.1 726.855 10735.9 731.062 10730.7 731.062C10725.5 731.062 10721.3 726.855 10721.3 721.666C10721.3 716.476 10725.5 712.27 10730.7 712.27C10735.9 712.27 10740.1 716.476 10740.1 721.666Z" fill="#E2E3FF"/>
<path d="M11155.4 721.666C11155.4 726.855 11151.2 731.062 11146.1 731.062C11140.9 731.062 11136.7 726.855 11136.7 721.666C11136.7 716.476 11140.9 712.27 11146.1 712.27C11151.2 712.27 11155.4 716.476 11155.4 721.666Z" fill="#E2E3FF"/>
<path d="M10406.1 723.555C10406.1 744.511 10389.1 761.5 10368.1 761.5C10347.2 761.5 10330.2 744.511 10330.2 723.555C10330.2 702.598 10347.2 685.609 10368.1 685.609C10389.1 685.609 10406.1 702.598 10406.1 723.555Z" fill="#E2E3FF"/>
<path d="M10516.5 717.227C10412.6 604.499 10240 386.677 10381.4 365.404C10558.1 338.813 10649.6 119.265 10572.5 87.9008C10495.4 56.5368 10388.9 105.628 10501.5 274.04C10614.1 442.451 10617.5 533.816 10595 608.135C10577 667.59 10579.3 708.818 10582.7 722" stroke="#E2E3FF" stroke-width="2"/>
<path d="M10732.2 722C10723.6 642.306 10756 485.642 10954.5 496.54C11153.1 507.439 11165.4 651.388 11146.8 722" stroke="#E2E3FF" stroke-width="2"/>
<path d="M10731 723C10731 638.39 10584 631.674 10584 723" stroke="#E2E3FF" stroke-width="2"/>
<path d="M10736.5 726C10707.5 680.972 10666.8 576.862 10736.5 520.645C10823.7 450.374 10761.1 320.066 10902.1 342.58C11043.1 365.094 11184.2 397.842 11142.6 520.645C11109.4 618.888 11128.8 698.483 11142.6 726" stroke="#E2E3FF" stroke-width="2"/>
<path d="M10260 1.0011C10338.8 0.773943 10510.8 35.6199 10568.5 176.821C10640.7 353.323 10580.8 422.152 10729.9 444.64C10879.1 467.129 11071.1 480.077 11096.3 554.358C11116.5 613.782 11136.5 690.879 11144 722" stroke="#E2E3FF" stroke-width="2"/>
<path d="M10260 407C10300.3 411.091 10387 438.364 10411.5 514.727C10442.2 610.182 10498.9 711.091 10518 722" stroke="#E2E3FF" stroke-width="2"/>
<path d="M10586 728C10586 841.748 11148 923.673 11148 728" stroke="#E2E3FF" stroke-width="2"/>
<path d="M10516.1 733.216C10497.9 758.415 10472.5 815.761 10516.1 843.548C10570.7 878.282 10533.2 956.605 10610.9 872.153C10688.7 787.701 10611.6 785.658 10651.8 769.312C10692.1 752.967 10727.5 759.096 10733 723" stroke="#E2E3FF" stroke-width="2"/>
<path d="M10586 727C10622.1 768.172 10687.5 858.117 10659.9 888.521C10625.3 926.526 10658.5 825.405 10678.2 809.118C10697.8 792.83 10788.6 799.616 10762.2 781.293C10735.8 762.969 10711.4 727 10731 727" stroke="#E2E3FF" stroke-width="2"/>
<path d="M11256.4 723.414C11257.2 722.633 11257.2 721.367 11256.4 720.586L11243.7 707.858C11242.9 707.077 11241.6 707.077 11240.9 707.858C11240.1 708.639 11240.1 709.905 11240.9 710.686L11252.2 722L11240.9 733.314C11240.1 734.095 11240.1 735.361 11240.9 736.142C11241.6 736.923 11242.9 736.923 11243.7 736.142L11256.4 723.414ZM10367 722V724H11255V722V720H10367V722Z" fill="#E2E3FF"/>
<path d="M11601 721.5C11601 726.747 11596.7 731 11591.5 731C11586.3 731 11582 726.747 11582 721.5C11582 716.253 11586.3 712 11591.5 712C11596.7 712 11601 716.253 11601 721.5Z" fill="#E2E3FF"/>
<path d="M11669 721.5C11669 726.747 11664.5 731 11659 731C11653.5 731 11649 726.747 11649 721.5C11649 716.253 11653.5 712 11659 712C11664.5 712 11669 716.253 11669 721.5Z" fill="#E2E3FF"/>
<path d="M11815 721.5C11815 726.747 11811 731 11806 731C11801 731 11797 726.747 11797 721.5C11797 716.253 11801 712 11806 712C11811 712 11815 716.253 11815 721.5Z" fill="#E2E3FF"/>
<path d="M12230 721.5C12230 726.747 12226 731 12221 731C12216 731 12212 726.747 12212 721.5C12212 716.253 12216 712 12221 712C12226 712 12230 716.253 12230 721.5Z" fill="#E2E3FF"/>
<path d="M11481 724C11481 744.987 11464 762 11443 762C11422 762 11405 744.987 11405 724C11405 703.013 11422 686 11443 686C11464 686 11481 703.013 11481 724Z" fill="#E2E3FF"/>
<path d="M12330.7 722.707C12331.1 722.317 12331.1 721.683 12330.7 721.293L12324.3 714.929C12324 714.538 12323.3 714.538 12322.9 714.929C12322.5 715.319 12322.5 715.953 12322.9 716.343L12328.6 722L12322.9 727.657C12322.5 728.047 12322.5 728.681 12322.9 729.071C12323.3 729.462 12324 729.462 12324.3 729.071L12330.7 722.707ZM11442 722V723H12330V722V721H11442V722Z" fill="#E2E3FF"/>
<path d="M11600.8 721.666C11600.8 726.855 11596.6 731.062 11591.4 731.062C11586.2 731.062 11582 726.855 11582 721.666C11582 716.476 11586.2 712.27 11591.4 712.27C11596.6 712.27 11600.8 716.476 11600.8 721.666Z" fill="#E2E3FF"/>
<path d="M11563.3 240.675C11563.3 244.814 11559.9 248.17 11555.8 248.17C11551.6 248.17 11548.3 244.814 11548.3 240.675C11548.3 236.535 11551.6 233.18 11555.8 233.18C11559.9 233.18 11563.3 236.535 11563.3 240.675Z" fill="#E2E3FF"/>
<path d="M12013 494.143C12013 498.283 12009.6 501.639 12005.5 501.639C12001.3 501.639 11998 498.283 11998 494.143C11998 490.004 12001.3 486.648 12005.5 486.648C12009.6 486.648 12013 490.004 12013 494.143Z" fill="#E2E3FF"/>
<path d="M11901.2 844.366C11901.2 848.506 11897.9 851.861 11893.7 851.861C11889.6 851.861 11886.2 848.506 11886.2 844.366C11886.2 840.227 11889.6 836.871 11893.7 836.871C11897.9 836.871 11901.2 840.227 11901.2 844.366Z" fill="#E2E3FF"/>
<path d="M12235.1 653.585C12235.1 657.724 12231.7 661.08 12227.6 661.08C12223.5 661.08 12220.1 657.724 12220.1 653.585C12220.1 649.445 12223.5 646.09 12227.6 646.09C12231.7 646.09 12235.1 649.445 12235.1 653.585Z" fill="#E2E3FF"/>
<path d="M11668.5 721.666C11668.5 726.855 11664.3 731.062 11659.1 731.062C11653.9 731.062 11649.7 726.855 11649.7 721.666C11649.7 716.476 11653.9 712.27 11659.1 712.27C11664.3 712.27 11668.5 716.476 11668.5 721.666Z" fill="#E2E3FF"/>
<path d="M11815.1 721.666C11815.1 726.855 11810.9 731.062 11805.7 731.062C11800.5 731.062 11796.3 726.855 11796.3 721.666C11796.3 716.476 11800.5 712.27 11805.7 712.27C11810.9 712.27 11815.1 716.476 11815.1 721.666Z" fill="#E2E3FF"/>
<path d="M12230.4 721.666C12230.4 726.855 12226.2 731.062 12221.1 731.062C12215.9 731.062 12211.7 726.855 12211.7 721.666C12211.7 716.476 12215.9 712.27 12221.1 712.27C12226.2 712.27 12230.4 716.476 12230.4 721.666Z" fill="#E2E3FF"/>
<path d="M11481.1 723.555C11481.1 744.511 11464.1 761.5 11443.1 761.5C11422.2 761.5 11405.2 744.511 11405.2 723.555C11405.2 702.598 11422.2 685.609 11443.1 685.609C11464.1 685.609 11481.1 702.598 11481.1 723.555Z" fill="#E2E3FF"/>
<path d="M11591.5 717.227C11487.6 604.499 11315 386.677 11456.4 365.404C11633.1 338.813 11724.6 119.265 11647.5 87.9008C11570.4 56.5368 11463.9 105.628 11576.5 274.04C11689.1 442.451 11692.5 533.816 11670 608.135C11652 667.59 11654.3 708.818 11657.7 722" stroke="#E2E3FF" stroke-width="2"/>
<path d="M11807.2 722C11798.6 642.306 11831 485.642 12029.5 496.54C12228.1 507.439 12240.4 651.388 12221.8 722" stroke="#E2E3FF" stroke-width="2"/>
<path d="M11806 723C11806 638.39 11659 631.674 11659 723" stroke="#E2E3FF" stroke-width="2"/>
<path d="M11811.5 726C11782.5 680.972 11741.8 576.862 11811.5 520.645C11898.7 450.374 11836.1 320.066 11977.1 342.58C12118.1 365.094 12259.2 397.842 12217.6 520.645C12184.4 618.888 12203.8 698.483 12217.6 726" stroke="#E2E3FF" stroke-width="2"/>
<path d="M11335 1.0011C11413.8 0.773943 11585.8 35.6199 11643.5 176.821C11715.7 353.323 11655.8 422.152 11804.9 444.64C11954.1 467.129 12146.1 480.077 12171.3 554.358C12191.5 613.782 12211.5 690.879 12219 722" stroke="#E2E3FF" stroke-width="2"/>
<path d="M11335 407C11375.3 411.091 11462 438.364 11486.5 514.727C11517.2 610.182 11573.9 711.091 11593 722" stroke="#E2E3FF" stroke-width="2"/>
<path d="M11661 728C11661 841.748 12223 923.673 12223 728" stroke="#E2E3FF" stroke-width="2"/>
<path d="M11591.1 733.216C11572.9 758.415 11547.5 815.761 11591.1 843.548C11645.7 878.282 11608.2 956.605 11685.9 872.153C11763.7 787.701 11686.6 785.658 11726.8 769.312C11767.1 752.967 11802.5 759.096 11808 723" stroke="#E2E3FF" stroke-width="2"/>
<path d="M11661 727C11697.1 768.172 11762.5 858.117 11734.9 888.521C11700.3 926.526 11733.5 825.405 11753.2 809.118C11772.8 792.83 11863.6 799.616 11837.2 781.293C11810.8 762.969 11786.4 727 11806 727" stroke="#E2E3FF" stroke-width="2"/>
<path d="M12331.4 723.414C12332.2 722.633 12332.2 721.367 12331.4 720.586L12318.7 707.858C12317.9 707.077 12316.6 707.077 12315.9 707.858C12315.1 708.639 12315.1 709.905 12315.9 710.686L12327.2 722L12315.9 733.314C12315.1 734.095 12315.1 735.361 12315.9 736.142C12316.6 736.923 12317.9 736.923 12318.7 736.142L12331.4 723.414ZM11442 722V724H12330V722V720H11442V722Z" fill="#E2E3FF"/>
<path d="M11530.8 244H11528.5L11533.7 229.455H11536.3L11541.5 244H11539.2L11535.1 232.097H11534.9L11530.8 244ZM11531.2 238.304H11538.8V240.151H11531.2V238.304Z" fill="#E2E3FF"/>
<path d="M11984.3 515H11979.6V500.455H11984.5C11985.9 500.455 11987.1 500.746 11988.1 501.328C11989.2 501.906 11989.9 502.737 11990.5 503.821C11991 504.901 11991.3 506.196 11991.3 507.706C11991.3 509.221 11991 510.523 11990.5 511.612C11989.9 512.701 11989.1 513.539 11988.1 514.126C11987 514.709 11985.8 515 11984.3 515ZM11981.8 513.082H11984.2C11985.3 513.082 11986.2 512.874 11986.9 512.457C11987.7 512.036 11988.2 511.428 11988.6 510.632C11989 509.832 11989.1 508.857 11989.1 507.706C11989.1 506.565 11989 505.597 11988.6 504.801C11988.2 504.006 11987.7 503.402 11987 502.99C11986.3 502.578 11985.4 502.372 11984.3 502.372H11981.8V513.082Z" fill="#E2E3FF"/>
<path d="M11895.6 823V808.455H11900.9C11902 808.455 11902.8 808.625 11903.5 808.966C11904.2 809.302 11904.7 809.759 11905 810.337C11905.3 810.91 11905.5 811.556 11905.5 812.276C11905.5 812.882 11905.4 813.393 11905.2 813.81C11905 814.222 11904.7 814.553 11904.3 814.804C11903.9 815.05 11903.5 815.23 11903.1 815.344V815.486C11903.5 815.509 11904 815.666 11904.5 815.955C11904.9 816.239 11905.3 816.643 11905.6 817.169C11905.9 817.695 11906.1 818.334 11906.1 819.087C11906.1 819.83 11905.9 820.498 11905.6 821.089C11905.2 821.677 11904.7 822.143 11904 822.489C11903.2 822.83 11902.3 823 11901.2 823H11895.6ZM11897.8 821.118H11901C11902 821.118 11902.8 820.914 11903.2 820.507C11903.7 820.1 11903.9 819.591 11903.9 818.98C11903.9 818.521 11903.8 818.099 11903.6 817.716C11903.3 817.332 11903 817.027 11902.6 816.8C11902.1 816.572 11901.6 816.459 11901 816.459H11897.8V821.118ZM11897.8 814.747H11900.7C11901.2 814.747 11901.7 814.652 11902.1 814.463C11902.5 814.274 11902.8 814.009 11903 813.668C11903.2 813.322 11903.4 812.915 11903.4 812.446C11903.4 811.845 11903.2 811.34 11902.7 810.933C11902.3 810.526 11901.7 810.322 11900.8 810.322H11897.8V814.747Z" fill="#E2E3FF"/>
<path d="M12248.7 638.185H12246.5C12246.4 637.711 12246.2 637.295 12246 636.935C12245.8 636.575 12245.5 636.269 12245.1 636.018C12244.8 635.768 12244.4 635.578 12244 635.45C12243.6 635.322 12243.2 635.259 12242.7 635.259C12241.9 635.259 12241.1 635.469 12240.4 635.891C12239.8 636.312 12239.3 636.93 12238.9 637.744C12238.5 638.559 12238.3 639.553 12238.3 640.727C12238.3 641.911 12238.5 642.91 12238.9 643.724C12239.3 644.539 12239.8 645.154 12240.4 645.571C12241.1 645.988 12241.9 646.196 12242.7 646.196C12243.1 646.196 12243.6 646.134 12244 646.011C12244.4 645.884 12244.8 645.696 12245.1 645.45C12245.5 645.204 12245.7 644.903 12246 644.548C12246.2 644.188 12246.4 643.777 12246.5 643.312L12248.7 643.32C12248.6 644.035 12248.3 644.693 12248 645.294C12247.7 645.891 12247.2 646.407 12246.7 646.842C12246.2 647.273 12245.6 647.607 12244.9 647.844C12244.2 648.08 12243.5 648.199 12242.7 648.199C12241.4 648.199 12240.3 647.901 12239.3 647.304C12238.3 646.703 12237.5 645.843 12237 644.726C12236.4 643.608 12236.1 642.276 12236.1 640.727C12236.1 639.174 12236.4 637.841 12237 636.729C12237.5 635.611 12238.3 634.754 12239.3 634.158C12240.3 633.556 12241.4 633.256 12242.7 633.256C12243.4 633.256 12244.2 633.367 12244.8 633.589C12245.5 633.807 12246.1 634.129 12246.6 634.555C12247.2 634.977 12247.6 635.493 12248 636.104C12248.3 636.71 12248.6 637.403 12248.7 638.185Z" fill="#E2E3FF"/>
<path d="M9451 721.5C9451 726.747 9446.75 731 9441.5 731C9436.25 731 9432 726.747 9432 721.5C9432 716.253 9436.25 712 9441.5 712C9446.75 712 9451 716.253 9451 721.5Z" fill="#E2E3FF"/>
<path d="M9519 721.5C9519 726.747 9514.52 731 9509 731C9503.48 731 9499 726.747 9499 721.5C9499 716.253 9503.48 712 9509 712C9514.52 712 9519 716.253 9519 721.5Z" fill="#E2E3FF"/>
<path d="M9665 721.5C9665 726.747 9660.97 731 9656 731C9651.03 731 9647 726.747 9647 721.5C9647 716.253 9651.03 712 9656 712C9660.97 712 9665 716.253 9665 721.5Z" fill="#E2E3FF"/>
<path d="M10080 721.5C10080 726.747 10076 731 10071 731C10066 731 10062 726.747 10062 721.5C10062 716.253 10066 712 10071 712C10076 712 10080 716.253 10080 721.5Z" fill="#E2E3FF"/>
<path d="M9331 724C9331 744.987 9313.99 762 9293 762C9272.01 762 9255 744.987 9255 724C9255 703.013 9272.01 686 9293 686C9313.99 686 9331 703.013 9331 724Z" fill="#E2E3FF"/>
<path d="M10180.7 722.707C10181.1 722.317 10181.1 721.683 10180.7 721.293L10174.3 714.929C10174 714.538 10173.3 714.538 10172.9 714.929C10172.5 715.319 10172.5 715.953 10172.9 716.343L10178.6 722L10172.9 727.657C10172.5 728.047 10172.5 728.681 10172.9 729.071C10173.3 729.462 10174 729.462 10174.3 729.071L10180.7 722.707ZM9292 722V723H10180V722V721H9292V722Z" fill="#E2E3FF"/>
<path d="M9441.51 717.227C9337.56 604.499 9165.01 386.677 9306.4 365.404C9483.13 338.813 9574.57 119.265 9497.46 87.9008C9420.35 56.5368 9313.9 105.628 9426.49 274.04C9539.08 442.451 9542.5 533.816 9519.98 608.135C9501.96 667.59 9504.28 708.818 9507.7 722" stroke="#E2E3FF" stroke-width="2"/>
<path d="M9657.25 722C9648.61 642.306 9680.97 485.642 9879.51 496.54C10078.1 507.439 10090.4 651.388 10071.8 722" stroke="#E2E3FF" stroke-width="2"/>
<path d="M9656 723C9656 638.39 9509 631.674 9509 723" stroke="#E2E3FF" stroke-width="2"/>
<path d="M9661.52 726C9632.45 680.972 9591.75 576.862 9661.52 520.645C9748.74 450.374 9686.05 320.066 9827.09 342.58C9968.13 365.094 10109.2 397.842 10067.6 520.645C10034.4 618.888 10053.8 698.483 10067.6 726" stroke="#E2E3FF" stroke-width="2"/>
<path d="M9185 1.0011C9263.77 0.773943 9435.76 35.6199 9493.51 176.821C9565.71 353.323 9505.77 422.152 9654.92 444.64C9804.07 467.129 9996.13 480.077 10021.3 554.358C10041.5 613.782 10061.5 690.879 10069 722" stroke="#E2E3FF" stroke-width="2"/>
<path d="M9185 407C9225.27 411.091 9311.95 438.364 9336.52 514.727C9367.24 610.182 9423.89 711.091 9443 722" stroke="#E2E3FF" stroke-width="2"/>
<path d="M9511 728C9511 841.748 10073 923.673 10073 728" stroke="#E2E3FF" stroke-width="2"/>
<path d="M9441.1 733.216C9422.91 758.415 9397.45 815.761 9441.1 843.548C9495.67 878.282 9458.15 956.605 9535.91 872.153C9613.67 787.701 9536.59 785.658 9576.83 769.312C9617.08 752.967 9652.54 759.096 9658 723" stroke="#E2E3FF" stroke-width="2"/>
<path d="M9511 727C9547.15 768.172 9612.53 858.117 9584.88 888.521C9550.31 926.526 9583.52 825.405 9603.17 809.118C9622.83 792.83 9713.65 799.616 9687.22 781.293C9660.78 762.969 9636.38 727 9656.04 727" stroke="#E2E3FF" stroke-width="2"/>
<path d="M10181.4 723.414C10182.2 722.633 10182.2 721.367 10181.4 720.586L10168.7 707.858C10167.9 707.077 10166.6 707.077 10165.9 707.858C10165.1 708.639 10165.1 709.905 10165.9 710.686L10177.2 722L10165.9 733.314C10165.1 734.095 10165.1 735.361 10165.9 736.142C10166.6 736.923 10167.9 736.923 10168.7 736.142L10181.4 723.414ZM9292 722V724H10180V722V720H9292V722Z" fill="#E2E3FF"/>
<path d="M8376 721.5C8376 726.747 8371.75 731 8366.5 731C8361.25 731 8357 726.747 8357 721.5C8357 716.253 8361.25 712 8366.5 712C8371.75 712 8376 716.253 8376 721.5Z" fill="#E2E3FF"/>
<path d="M8444 721.5C8444 726.747 8439.52 731 8434 731C8428.48 731 8424 726.747 8424 721.5C8424 716.253 8428.48 712 8434 712C8439.52 712 8444 716.253 8444 721.5Z" fill="#E2E3FF"/>
<path d="M8590 721.5C8590 726.747 8585.97 731 8581 731C8576.03 731 8572 726.747 8572 721.5C8572 716.253 8576.03 712 8581 712C8585.97 712 8590 716.253 8590 721.5Z" fill="#E2E3FF"/>
<path d="M9005 721.5C9005 726.747 9000.97 731 8996 731C8991.03 731 8987 726.747 8987 721.5C8987 716.253 8991.03 712 8996 712C9000.97 712 9005 716.253 9005 721.5Z" fill="#E2E3FF"/>
<path d="M8256 724C8256 744.987 8238.99 762 8218 762C8197.01 762 8180 744.987 8180 724C8180 703.013 8197.01 686 8218 686C8238.99 686 8256 703.013 8256 724Z" fill="#E2E3FF"/>
<path d="M9105.71 722.707C9106.1 722.317 9106.1 721.683 9105.71 721.293L9099.34 714.929C9098.95 714.538 9098.32 714.538 9097.93 714.929C9097.54 715.319 9097.54 715.953 9097.93 716.343L9103.59 722L9097.93 727.657C9097.54 728.047 9097.54 728.681 9097.93 729.071C9098.32 729.462 9098.95 729.462 9099.34 729.071L9105.71 722.707ZM8217 722V723H9105V722V721H8217V722Z" fill="#E2E3FF"/>
<path d="M8366.51 717.227C8262.56 604.499 8090.01 386.677 8231.4 365.404C8408.13 338.813 8499.57 119.265 8422.46 87.9008C8345.35 56.5368 8238.9 105.628 8351.49 274.04C8464.08 442.451 8467.5 533.816 8444.98 608.135C8426.96 667.59 8429.28 708.818 8432.7 722" stroke="#E2E3FF" stroke-width="2"/>
<path d="M8582.25 722C8573.61 642.306 8605.97 485.642 8804.51 496.54C9003.05 507.439 9015.42 651.388 8996.78 722" stroke="#E2E3FF" stroke-width="2"/>
<path d="M8581 723C8581 638.39 8434 631.674 8434 723" stroke="#E2E3FF" stroke-width="2"/>
<path d="M8586.52 726C8557.45 680.972 8516.75 576.862 8586.52 520.645C8673.74 450.374 8611.05 320.066 8752.09 342.58C8893.13 365.094 9034.17 397.842 8992.61 520.645C8959.36 618.888 8978.76 698.483 8992.61 726" stroke="#E2E3FF" stroke-width="2"/>
<path d="M8110 1.0011C8188.77 0.773943 8360.76 35.6199 8418.51 176.821C8490.71 353.323 8430.77 422.152 8579.92 444.64C8729.07 467.129 8921.13 480.077 8946.33 554.358C8966.49 613.782 8986.51 690.879 8994 722" stroke="#E2E3FF" stroke-width="2"/>
<path d="M8436 728C8436 841.748 8998 923.673 8998 728" stroke="#E2E3FF" stroke-width="2"/>
<path d="M8366.1 733.216C8347.91 758.415 8322.45 815.761 8366.1 843.548C8420.67 878.282 8383.15 956.605 8460.91 872.153C8538.67 787.701 8461.59 785.658 8501.83 769.312C8542.08 752.967 8577.54 759.096 8583 723" stroke="#E2E3FF" stroke-width="2"/>
<path d="M8436 727C8472.15 768.172 8537.53 858.117 8509.88 888.521C8475.31 926.526 8508.52 825.405 8528.17 809.118C8547.83 792.83 8638.65 799.616 8612.22 781.293C8585.78 762.969 8561.38 727 8581.04 727" stroke="#E2E3FF" stroke-width="2"/>
<path d="M9106.41 723.414C9107.2 722.633 9107.2 721.367 9106.41 720.586L9093.69 707.858C9092.91 707.077 9091.64 707.077 9090.86 707.858C9090.08 708.639 9090.08 709.905 9090.86 710.686L9102.17 722L9090.86 733.314C9090.08 734.095 9090.08 735.361 9090.86 736.142C9091.64 736.923 9092.91 736.923 9093.69 736.142L9106.41 723.414ZM8217 722V724H9105V722V720H8217V722Z" fill="#E2E3FF"/>
<path d="M7301 721.5C7301 726.747 7296.75 731 7291.5 731C7286.25 731 7282 726.747 7282 721.5C7282 716.253 7286.25 712 7291.5 712C7296.75 712 7301 716.253 7301 721.5Z" fill="#E2E3FF"/>
<path d="M7369 721.5C7369 726.747 7364.52 731 7359 731C7353.48 731 7349 726.747 7349 721.5C7349 716.253 7353.48 712 7359 712C7364.52 712 7369 716.253 7369 721.5Z" fill="#E2E3FF"/>
<path d="M7515 721.5C7515 726.747 7510.97 731 7506 731C7501.03 731 7497 726.747 7497 721.5C7497 716.253 7501.03 712 7506 712C7510.97 712 7515 716.253 7515 721.5Z" fill="#E2E3FF"/>
<path d="M7930 721.5C7930 726.747 7925.97 731 7921 731C7916.03 731 7912 726.747 7912 721.5C7912 716.253 7916.03 712 7921 712C7925.97 712 7930 716.253 7930 721.5Z" fill="#E2E3FF"/>
<path d="M7181 724C7181 744.987 7163.99 762 7143 762C7122.01 762 7105 744.987 7105 724C7105 703.013 7122.01 686 7143 686C7163.99 686 7181 703.013 7181 724Z" fill="#E2E3FF"/>
<path d="M8030.71 722.707C8031.1 722.317 8031.1 721.683 8030.71 721.293L8024.34 714.929C8023.95 714.538 8023.32 714.538 8022.93 714.929C8022.54 715.319 8022.54 715.953 8022.93 716.343L8028.59 722L8022.93 727.657C8022.54 728.047 8022.54 728.681 8022.93 729.071C8023.32 729.462 8023.95 729.462 8024.34 729.071L8030.71 722.707ZM7142 722V723H8030V722V721H7142V722Z" fill="#E2E3FF"/>
<path d="M7507.25 722C7498.61 642.306 7530.97 485.642 7729.51 496.54C7928.05 507.439 7940.42 651.388 7921.78 722" stroke="#E2E3FF" stroke-width="2"/>
<path d="M7506 723C7506 638.39 7359 631.674 7359 723" stroke="#E2E3FF" stroke-width="2"/>
<path d="M7511.52 726C7482.45 680.972 7441.75 576.862 7511.52 520.645C7598.74 450.374 7536.05 320.066 7677.09 342.58C7818.13 365.094 7959.17 397.842 7917.61 520.645C7884.36 618.888 7903.76 698.483 7917.61 726" stroke="#E2E3FF" stroke-width="2"/>
<path d="M7035 1.0011C7113.77 0.773943 7285.76 35.6199 7343.51 176.821C7415.71 353.323 7355.77 422.152 7504.92 444.64C7654.07 467.129 7846.13 480.077 7871.33 554.358C7891.49 613.782 7911.51 690.879 7919 722" stroke="#E2E3FF" stroke-width="2"/>
<path d="M7361 728C7361 841.748 7923 923.673 7923 728" stroke="#E2E3FF" stroke-width="2"/>
<path d="M7291.1 733.216C7272.91 758.415 7247.45 815.761 7291.1 843.548C7345.67 878.282 7308.15 956.605 7385.91 872.153C7463.67 787.701 7386.59 785.658 7426.83 769.312C7467.08 752.967 7502.54 759.096 7508 723" stroke="#E2E3FF" stroke-width="2"/>
<path d="M7361 727C7397.15 768.172 7462.53 858.117 7434.88 888.521C7400.31 926.526 7433.52 825.405 7453.17 809.118C7472.83 792.83 7563.65 799.616 7537.22 781.293C7510.78 762.969 7486.38 727 7506.04 727" stroke="#E2E3FF" stroke-width="2"/>
<path d="M8031.41 723.414C8032.2 722.633 8032.2 721.367 8031.41 720.586L8018.69 707.858C8017.91 707.077 8016.64 707.077 8015.86 707.858C8015.08 708.639 8015.08 709.905 8015.86 710.686L8027.17 722L8015.86 733.314C8015.08 734.095 8015.08 735.361 8015.86 736.142C8016.64 736.923 8017.91 736.923 8018.69 736.142L8031.41 723.414ZM7142 722V724H8030V722V720H7142V722Z" fill="#E2E3FF"/>
<path d="M6226 721.5C6226 726.747 6221.75 731 6216.5 731C6211.25 731 6207 726.747 6207 721.5C6207 716.253 6211.25 712 6216.5 712C6221.75 712 6226 716.253 6226 721.5Z" fill="#E2E3FF"/>
<path d="M6294 721.5C6294 726.747 6289.52 731 6284 731C6278.48 731 6274 726.747 6274 721.5C6274 716.253 6278.48 712 6284 712C6289.52 712 6294 716.253 6294 721.5Z" fill="#E2E3FF"/>
<path d="M6440 721.5C6440 726.747 6435.97 731 6431 731C6426.03 731 6422 726.747 6422 721.5C6422 716.253 6426.03 712 6431 712C6435.97 712 6440 716.253 6440 721.5Z" fill="#E2E3FF"/>
<path d="M6855 721.5C6855 726.747 6850.97 731 6846 731C6841.03 731 6837 726.747 6837 721.5C6837 716.253 6841.03 712 6846 712C6850.97 712 6855 716.253 6855 721.5Z" fill="#E2E3FF"/>
<path d="M6106 724C6106 744.987 6088.99 762 6068 762C6047.01 762 6030 744.987 6030 724C6030 703.013 6047.01 686 6068 686C6088.99 686 6106 703.013 6106 724Z" fill="#E2E3FF"/>
<path d="M6955.71 722.707C6956.1 722.317 6956.1 721.683 6955.71 721.293L6949.34 714.929C6948.95 714.538 6948.32 714.538 6947.93 714.929C6947.54 715.319 6947.54 715.953 6947.93 716.343L6953.59 722L6947.93 727.657C6947.54 728.047 6947.54 728.681 6947.93 729.071C6948.32 729.462 6948.95 729.462 6949.34 729.071L6955.71 722.707ZM6067 722V723H6955V722V721H6067V722Z" fill="#E2E3FF"/>
<path d="M6432.25 722C6423.61 642.306 6455.97 485.642 6654.51 496.54C6853.05 507.439 6865.42 651.388 6846.78 722" stroke="#E2E3FF" stroke-width="2"/>
<path d="M6431 723C6431 638.39 6284 631.674 6284 723" stroke="#E2E3FF" stroke-width="2"/>
<path d="M6436.52 726C6407.45 680.972 6366.75 576.862 6436.52 520.645C6523.74 450.374 6461.05 320.066 6602.09 342.58C6743.13 365.094 6884.17 397.842 6842.61 520.645C6809.36 618.888 6828.76 698.483 6842.61 726" stroke="#E2E3FF" stroke-width="2"/>
<path d="M6286 728C6286 841.748 6848 923.673 6848 728" stroke="#E2E3FF" stroke-width="2"/>
<path d="M6216.1 733.216C6197.91 758.415 6172.45 815.761 6216.1 843.548C6270.67 878.282 6233.15 956.605 6310.91 872.153C6388.67 787.701 6311.59 785.658 6351.83 769.312C6392.08 752.967 6427.54 759.096 6433 723" stroke="#E2E3FF" stroke-width="2"/>
<path d="M6286 727C6322.15 768.172 6387.53 858.117 6359.88 888.521C6325.31 926.526 6358.52 825.405 6378.17 809.118C6397.83 792.83 6488.65 799.616 6462.22 781.293C6435.78 762.969 6411.38 727 6431.04 727" stroke="#E2E3FF" stroke-width="2"/>
<path d="M6956.41 723.414C6957.2 722.633 6957.2 721.367 6956.41 720.586L6943.69 707.858C6942.91 707.077 6941.64 707.077 6940.86 707.858C6940.08 708.639 6940.08 709.905 6940.86 710.686L6952.17 722L6940.86 733.314C6940.08 734.095 6940.08 735.361 6940.86 736.142C6941.64 736.923 6942.91 736.923 6943.69 736.142L6956.41 723.414ZM6067 722V724H6955V722V720H6067V722Z" fill="#E2E3FF"/>
<path d="M5221 721.5C5221 726.747 5216.75 731 5211.5 731C5206.25 731 5202 726.747 5202 721.5C5202 716.253 5206.25 712 5211.5 712C5216.75 712 5221 716.253 5221 721.5Z" fill="#E2E3FF"/>
<path d="M5289 721.5C5289 726.747 5284.52 731 5279 731C5273.48 731 5269 726.747 5269 721.5C5269 716.253 5273.48 712 5279 712C5284.52 712 5289 716.253 5289 721.5Z" fill="#E2E3FF"/>
<path d="M5435 721.5C5435 726.747 5430.97 731 5426 731C5421.03 731 5417 726.747 5417 721.5C5417 716.253 5421.03 712 5426 712C5430.97 712 5435 716.253 5435 721.5Z" fill="#E2E3FF"/>
<path d="M5850 721.5C5850 726.747 5845.97 731 5841 731C5836.03 731 5832 726.747 5832 721.5C5832 716.253 5836.03 712 5841 712C5845.97 712 5850 716.253 5850 721.5Z" fill="#E2E3FF"/>
<path d="M5101 724C5101 744.987 5083.99 762 5063 762C5042.01 762 5025 744.987 5025 724C5025 703.013 5042.01 686 5063 686C5083.99 686 5101 703.013 5101 724Z" fill="#E2E3FF"/>
<path d="M5950.71 722.707C5951.1 722.317 5951.1 721.683 5950.71 721.293L5944.34 714.929C5943.95 714.538 5943.32 714.538 5942.93 714.929C5942.54 715.319 5942.54 715.953 5942.93 716.343L5948.59 722L5942.93 727.657C5942.54 728.047 5942.54 728.681 5942.93 729.071C5943.32 729.462 5943.95 729.462 5944.34 729.071L5950.71 722.707ZM5062 722V723H5950V722V721H5062V722Z" fill="#E2E3FF"/>
<path d="M5427.25 722C5418.61 642.306 5450.97 485.642 5649.51 496.54C5848.05 507.439 5860.42 651.388 5841.78 722" stroke="#E2E3FF" stroke-width="2"/>
<path d="M5426 723C5426 638.39 5279 631.674 5279 723" stroke="#E2E3FF" stroke-width="2"/>
<path d="M5281 728C5281 841.748 5843 923.673 5843 728" stroke="#E2E3FF" stroke-width="2"/>
<path d="M5211.1 733.216C5192.91 758.415 5167.45 815.761 5211.1 843.548C5265.67 878.282 5228.15 956.605 5305.91 872.153C5383.67 787.701 5306.59 785.658 5346.83 769.312C5387.08 752.967 5422.54 759.096 5428 723" stroke="#E2E3FF" stroke-width="2"/>
<path d="M5281 727C5317.15 768.172 5382.53 858.117 5354.88 888.521C5320.31 926.526 5353.52 825.405 5373.17 809.118C5392.83 792.83 5483.65 799.616 5457.22 781.293C5430.78 762.969 5406.38 727 5426.04 727" stroke="#E2E3FF" stroke-width="2"/>
<path d="M5951.41 723.414C5952.2 722.633 5952.2 721.367 5951.41 720.586L5938.69 707.858C5937.91 707.077 5936.64 707.077 5935.86 707.858C5935.08 708.639 5935.08 709.905 5935.86 710.686L5947.17 722L5935.86 733.314C5935.08 734.095 5935.08 735.361 5935.86 736.142C5936.64 736.923 5937.91 736.923 5938.69 736.142L5951.41 723.414ZM5062 722V724H5950V722V720H5062V722Z" fill="#E2E3FF"/>
<path d="M4216 721.5C4216 726.747 4211.75 731 4206.5 731C4201.25 731 4197 726.747 4197 721.5C4197 716.253 4201.25 712 4206.5 712C4211.75 712 4216 716.253 4216 721.5Z" fill="#E2E3FF"/>
<path d="M4284 721.5C4284 726.747 4279.52 731 4274 731C4268.48 731 4264 726.747 4264 721.5C4264 716.253 4268.48 712 4274 712C4279.52 712 4284 716.253 4284 721.5Z" fill="#E2E3FF"/>
<path d="M4430 721.5C4430 726.747 4425.97 731 4421 731C4416.03 731 4412 726.747 4412 721.5C4412 716.253 4416.03 712 4421 712C4425.97 712 4430 716.253 4430 721.5Z" fill="#E2E3FF"/>
<path d="M4845 721.5C4845 726.747 4840.97 731 4836 731C4831.03 731 4827 726.747 4827 721.5C4827 716.253 4831.03 712 4836 712C4840.97 712 4845 716.253 4845 721.5Z" fill="#E2E3FF"/>
<path d="M4096 724C4096 744.987 4078.99 762 4058 762C4037.01 762 4020 744.987 4020 724C4020 703.013 4037.01 686 4058 686C4078.99 686 4096 703.013 4096 724Z" fill="#E2E3FF"/>
<path d="M4945.71 722.707C4946.1 722.317 4946.1 721.683 4945.71 721.293L4939.34 714.929C4938.95 714.538 4938.32 714.538 4937.93 714.929C4937.54 715.319 4937.54 715.953 4937.93 716.343L4943.59 722L4937.93 727.657C4937.54 728.047 4937.54 728.681 4937.93 729.071C4938.32 729.462 4938.95 729.462 4939.34 729.071L4945.71 722.707ZM4057 722V723H4945V722V721H4057V722Z" fill="#E2E3FF"/>
<path d="M4422.25 722C4413.61 642.306 4445.97 485.642 4644.51 496.54C4843.05 507.439 4855.42 651.388 4836.78 722" stroke="#E2E3FF" stroke-width="2"/>
<path d="M4421 723C4421 638.39 4274 631.674 4274 723" stroke="#E2E3FF" stroke-width="2"/>
<path d="M4276 728C4276 841.748 4838 923.673 4838 728" stroke="#E2E3FF" stroke-width="2"/>
<path d="M4276 727C4312.15 768.172 4377.53 858.117 4349.88 888.521C4315.31 926.526 4348.52 825.405 4368.17 809.118C4387.83 792.83 4478.65 799.616 4452.22 781.293C4425.78 762.969 4401.38 727 4421.04 727" stroke="#E2E3FF" stroke-width="2"/>
<path d="M4946.41 723.414C4947.2 722.633 4947.2 721.367 4946.41 720.586L4933.69 707.858C4932.91 707.077 4931.64 707.077 4930.86 707.858C4930.08 708.639 4930.08 709.905 4930.86 710.686L4942.17 722L4930.86 733.314C4930.08 734.095 4930.08 735.361 4930.86 736.142C4931.64 736.923 4932.91 736.923 4933.69 736.142L4946.41 723.414ZM4057 722V724H4945V722V720H4057V722Z" fill="#E2E3FF"/>
<path d="M3211 721.5C3211 726.747 3206.74 731 3201.5 731C3196.25 731 3192 726.747 3192 721.5C3192 716.253 3196.25 712 3201.5 712C3206.74 712 3211 716.253 3211 721.5Z" fill="#E2E3FF"/>
<path d="M3279 721.5C3279 726.747 3274.52 731 3269 731C3263.48 731 3259 726.747 3259 721.5C3259 716.253 3263.48 712 3269 712C3274.52 712 3279 716.253 3279 721.5Z" fill="#E2E3FF"/>
<path d="M3425 721.5C3425 726.747 3420.97 731 3416 731C3411.03 731 3407 726.747 3407 721.5C3407 716.253 3411.03 712 3416 712C3420.97 712 3425 716.253 3425 721.5Z" fill="#E2E3FF"/>
<path d="M3840 721.5C3840 726.747 3835.97 731 3831 731C3826.03 731 3822 726.747 3822 721.5C3822 716.253 3826.03 712 3831 712C3835.97 712 3840 716.253 3840 721.5Z" fill="#E2E3FF"/>
<path d="M3091 724C3091 744.987 3073.98 762 3053 762C3032.01 762 3015 744.987 3015 724C3015 703.013 3032.01 686 3053 686C3073.98 686 3091 703.013 3091 724Z" fill="#E2E3FF"/>
<path d="M3940.71 722.707C3941.1 722.317 3941.1 721.683 3940.71 721.293L3934.34 714.929C3933.95 714.538 3933.32 714.538 3932.93 714.929C3932.54 715.319 3932.54 715.953 3932.93 716.343L3938.58 722L3932.93 727.657C3932.54 728.047 3932.54 728.681 3932.93 729.071C3933.32 729.462 3933.95 729.462 3934.34 729.071L3940.71 722.707ZM3052 722V723H3940V722V721H3052V722Z" fill="#E2E3FF"/>
<path d="M3417.24 722C3408.61 642.306 3440.97 485.642 3639.51 496.54C3838.05 507.439 3850.41 651.388 3831.78 722" stroke="#E2E3FF" stroke-width="2"/>
<path d="M3416 723C3416 638.39 3269 631.674 3269 723" stroke="#E2E3FF" stroke-width="2"/>
<path d="M3271 728C3271 841.748 3833 923.673 3833 728" stroke="#E2E3FF" stroke-width="2"/>
<path d="M3941.41 723.414C3942.19 722.633 3942.19 721.367 3941.41 720.586L3928.68 707.858C3927.9 707.077 3926.64 707.077 3925.86 707.858C3925.07 708.639 3925.07 709.905 3925.86 710.686L3937.17 722L3925.86 733.314C3925.07 734.095 3925.07 735.361 3925.86 736.142C3926.64 736.923 3927.9 736.923 3928.68 736.142L3941.41 723.414ZM3052 722V724H3940V722V720H3052V722Z" fill="#E2E3FF"/>
<path d="M2206 721.5C2206 726.747 2201.75 731 2196.5 731C2191.25 731 2187 726.747 2187 721.5C2187 716.253 2191.25 712 2196.5 712C2201.75 712 2206 716.253 2206 721.5Z" fill="#E2E3FF"/>
<path d="M2274 721.5C2274 726.747 2269.52 731 2264 731C2258.48 731 2254 726.747 2254 721.5C2254 716.253 2258.48 712 2264 712C2269.52 712 2274 716.253 2274 721.5Z" fill="#E2E3FF"/>
<path d="M2420 721.5C2420 726.747 2415.97 731 2411 731C2406.03 731 2402 726.747 2402 721.5C2402 716.253 2406.03 712 2411 712C2415.97 712 2420 716.253 2420 721.5Z" fill="#E2E3FF"/>
<path d="M2835 721.5C2835 726.747 2830.97 731 2826 731C2821.03 731 2817 726.747 2817 721.5C2817 716.253 2821.03 712 2826 712C2830.97 712 2835 716.253 2835 721.5Z" fill="#E2E3FF"/>
<path d="M2086 724C2086 744.987 2068.99 762 2048 762C2027.01 762 2010 744.987 2010 724C2010 703.013 2027.01 686 2048 686C2068.99 686 2086 703.013 2086 724Z" fill="#E2E3FF"/>
<path d="M2935.71 722.707C2936.1 722.317 2936.1 721.683 2935.71 721.293L2929.34 714.929C2928.95 714.538 2928.32 714.538 2927.93 714.929C2927.54 715.319 2927.54 715.953 2927.93 716.343L2933.59 722L2927.93 727.657C2927.54 728.047 2927.54 728.681 2927.93 729.071C2928.32 729.462 2928.95 729.462 2929.34 729.071L2935.71 722.707ZM2047 722V723H2935V722V721H2047V722Z" fill="#E2E3FF"/>
<path d="M2412.25 722C2403.61 642.306 2435.97 485.642 2634.51 496.54C2833.05 507.439 2845.42 651.388 2826.78 722" stroke="#E2E3FF" stroke-width="2"/>
<path d="M2411 723C2411 638.39 2264 631.674 2264 723" stroke="#E2E3FF" stroke-width="2"/>
<path d="M2936.41 723.414C2937.2 722.633 2937.2 721.367 2936.41 720.586L2923.69 707.858C2922.91 707.077 2921.64 707.077 2920.86 707.858C2920.08 708.639 2920.08 709.905 2920.86 710.686L2932.17 722L2920.86 733.314C2920.08 734.095 2920.08 735.361 2920.86 736.142C2921.64 736.923 2922.91 736.923 2923.69 736.142L2936.41 723.414ZM2047 722V724H2935V722V720H2047V722Z" fill="#E2E3FF"/>
<path d="M1201 721.5C1201 726.747 1196.75 731 1191.5 731C1186.25 731 1182 726.747 1182 721.5C1182 716.253 1186.25 712 1191.5 712C1196.75 712 1201 716.253 1201 721.5Z" fill="#E2E3FF"/>
<path d="M1269 721.5C1269 726.747 1264.52 731 1259 731C1253.48 731 1249 726.747 1249 721.5C1249 716.253 1253.48 712 1259 712C1264.52 712 1269 716.253 1269 721.5Z" fill="#E2E3FF"/>
<path d="M1415 721.5C1415 726.747 1410.97 731 1406 731C1401.03 731 1397 726.747 1397 721.5C1397 716.253 1401.03 712 1406 712C1410.97 712 1415 716.253 1415 721.5Z" fill="#E2E3FF"/>
<path d="M1830 721.5C1830 726.747 1825.97 731 1821 731C1816.03 731 1812 726.747 1812 721.5C1812 716.253 1816.03 712 1821 712C1825.97 712 1830 716.253 1830 721.5Z" fill="#E2E3FF"/>
<path d="M1081 724C1081 744.987 1063.99 762 1043 762C1022.01 762 1005 744.987 1005 724C1005 703.013 1022.01 686 1043 686C1063.99 686 1081 703.013 1081 724Z" fill="#E2E3FF"/>
<path d="M1930.71 722.707C1931.1 722.317 1931.1 721.683 1930.71 721.293L1924.34 714.929C1923.95 714.538 1923.32 714.538 1922.93 714.929C1922.54 715.319 1922.54 715.953 1922.93 716.343L1928.59 722L1922.93 727.657C1922.54 728.047 1922.54 728.681 1922.93 729.071C1923.32 729.462 1923.95 729.462 1924.34 729.071L1930.71 722.707ZM1042 722V723H1930V722V721H1042V722Z" fill="#E2E3FF"/>
<path d="M1406 723C1406 638.39 1259 631.674 1259 723" stroke="#E2E3FF" stroke-width="2"/>
<path d="M1931.41 723.414C1932.2 722.633 1932.2 721.367 1931.41 720.586L1918.69 707.858C1917.91 707.077 1916.64 707.077 1915.86 707.858C1915.08 708.639 1915.08 709.905 1915.86 710.686L1927.17 722L1915.86 733.314C1915.08 734.095 1915.08 735.361 1915.86 736.142C1916.64 736.923 1917.91 736.923 1918.69 736.142L1931.41 723.414ZM1042 722V724H1930V722V720H1042V722Z" fill="#E2E3FF"/>
<path d="M196 721.5C196 726.747 191.747 731 186.5 731C181.253 731 177 726.747 177 721.5C177 716.253 181.253 712 186.5 712C191.747 712 196 716.253 196 721.5Z" fill="#E2E3FF"/>
<path d="M264 721.5C264 726.747 259.523 731 254 731C248.477 731 244 726.747 244 721.5C244 716.253 248.477 712 254 712C259.523 712 264 716.253 264 721.5Z" fill="#E2E3FF"/>
<path d="M410 721.5C410 726.747 405.971 731 401 731C396.029 731 392 726.747 392 721.5C392 716.253 396.029 712 401 712C405.971 712 410 716.253 410 721.5Z" fill="#E2E3FF"/>
<path d="M825 721.5C825 726.747 820.971 731 816 731C811.029 731 807 726.747 807 721.5C807 716.253 811.029 712 816 712C820.971 712 825 716.253 825 721.5Z" fill="#E2E3FF"/>
<path d="M76 724C76 744.987 58.9868 762 38 762C17.0132 762 0 744.987 0 724C0 703.013 17.0132 686 38 686C58.9868 686 76 703.013 76 724Z" fill="#E2E3FF"/>
<path d="M925.707 722.707C926.098 722.317 926.098 721.683 925.707 721.293L919.343 714.929C918.953 714.538 918.319 714.538 917.929 714.929C917.538 715.319 917.538 715.953 917.929 716.343L923.586 722L917.929 727.657C917.538 728.047 917.538 728.681 917.929 729.071C918.319 729.462 918.953 729.462 919.343 729.071L925.707 722.707ZM37 722V723H925V722V721H37V722Z" fill="#E2E3FF"/>
<path d="M926.414 723.414C927.195 722.633 927.195 721.367 926.414 720.586L913.686 707.858C912.905 707.077 911.639 707.077 910.858 707.858C910.077 708.639 910.077 709.905 910.858 710.686L922.172 722L910.858 733.314C910.077 734.095 910.077 735.361 910.858 736.142C911.639 736.923 912.905 736.923 913.686 736.142L926.414 723.414ZM37 722V724H925V722V720H37V722Z" fill="#E2E3FF"/>
</svg>
