<svg width="691" height="1002" viewBox="0 0 691 1002" fill="none" xmlns="http://www.w3.org/2000/svg">
<path d="M555.861 896.862L616.573 885.065L647.457 953.307L586.832 960.429L555.861 896.862Z" fill="#050D33"/>
<path d="M624.193 884.382L686.168 873.709L721.635 946.712L655.244 953.452L624.193 884.382Z" fill="#050D33"/>
<path d="M521.024 824.42L579.509 809.281L612.117 878.38L552.696 889.743L521.024 824.42Z" fill="#050D33"/>
<path d="M585.699 806.646L647.229 790.371L684.728 867.447L621.561 878.19L585.699 806.646Z" fill="#050D33"/>
<path d="M484.857 749.662L539.052 728.666L575.851 803.987L519.121 818.425L484.857 749.662Z" fill="#050D33"/>
<path d="M545.775 726.958L604.701 702.933L643.867 783.982L581.479 801.983L545.775 726.958Z" fill="#050D33"/>
<path d="M482.322 743.104L535.423 721.813L500.882 648.277L447.712 668.375L482.322 743.104Z" fill="#050D33"/>
<path d="M505.683 646.441L567.035 625.029L601.901 695.912L541.515 719.543L505.683 646.441Z" fill="#050D33"/>
<path d="M289.078 336.989L332.172 302.033L369.671 379.109L324.389 413.474L289.078 336.989Z" fill="#050D33"/>
<path d="M335.029 291.451L387.418 249.608L352.246 175.51L301.83 224.541L335.029 291.451Z" fill="#050D33"/>
<path d="M256.608 270.276L296.409 230.124L329.736 295.111L286.15 331.892L256.608 270.276Z" fill="#050D33"/>
<path d="M299.562 218.447L348.125 170.482L315.575 98.266L268.245 148.913L299.562 218.447Z" fill="#050D33"/>
<path d="M222.738 200.053L261.769 156.953L294.17 222.473L254.044 265.277L222.738 200.053Z" fill="#050D33"/>
<path d="M263.029 143.59L312.016 92.6067L280.137 23.7044L231.762 81.1173L263.029 143.59Z" fill="#050D33"/>
<path d="M190.632 133.439L226.607 87.1644L258.87 150.297L219.642 194.127L190.632 133.439Z" fill="#050D33"/>
<path fill-rule="evenodd" clip-rule="evenodd" d="M395.231 369.958L382.16 377.783L322.122 421.867L182.973 131.371L278.263 16.151L289.935 19.3025L441.735 333.965L395.231 369.958ZM429.778 336.218L374.865 375.813L337.031 297.081L390.149 255.435L429.778 336.218ZM387.418 249.608L335.029 291.451L301.83 224.541L352.246 175.51L387.418 249.608ZM348.125 170.482L299.562 218.447L268.245 148.913L315.575 98.266L348.125 170.482ZM312.016 92.6067L263.029 143.59L231.762 81.1173L280.137 23.7044L312.016 92.6067ZM226.607 87.1644L190.632 133.439L219.642 194.127L258.87 150.297L226.607 87.1644ZM261.769 156.953L222.738 200.053L254.044 265.277L294.17 222.473L261.769 156.953ZM296.409 230.124L256.608 270.276L286.15 331.892L329.736 295.111L296.409 230.124ZM332.172 302.033L289.078 336.989L324.389 413.474L369.671 379.109L332.172 302.033Z" fill="url(#paint0_linear_151_1714)"/>
<path fill-rule="evenodd" clip-rule="evenodd" d="M535.423 721.813L482.322 743.104L447.712 668.375L500.882 648.277L535.423 721.813ZM505.683 646.441L567.035 625.029L601.901 695.912L541.515 719.543L505.683 646.441ZM604.701 702.933L545.775 726.958L581.479 801.983L643.867 783.982L604.701 702.933ZM484.857 749.662L539.052 728.666L575.851 803.987L519.121 818.425L484.857 749.662ZM579.509 809.281L521.024 824.42L552.696 889.743L612.117 878.38L579.509 809.281ZM585.699 806.646L647.229 790.371L684.728 867.447L621.561 878.19L585.699 806.646ZM686.168 873.709L624.193 884.382L655.244 953.452L721.635 946.712L686.168 873.709ZM555.861 896.862L616.573 885.065L647.457 953.307L586.832 960.429L555.861 896.862ZM335.029 291.451L387.418 249.608L352.246 175.51L301.83 224.541L335.029 291.451ZM348.125 170.482L299.562 218.447L268.245 148.913L315.575 98.266L348.125 170.482ZM263.029 143.59L312.016 92.6067L280.137 23.7044L231.762 81.1173L263.029 143.59ZM226.607 87.1644L190.632 133.439L219.642 194.127L258.87 150.297L226.607 87.1644ZM222.738 200.053L261.769 156.953L294.17 222.473L254.044 265.277L222.738 200.053ZM296.409 230.124L256.608 270.276L286.15 331.892L329.736 295.111L296.409 230.124ZM289.078 336.989L332.172 302.033L369.671 379.109L324.389 413.474L289.078 336.989Z" fill="#050D33"/>
<path d="M374.865 375.813L429.778 336.218L390.149 255.435L337.031 297.081L374.865 375.813Z" fill="#050D33"/>
<path fill-rule="evenodd" clip-rule="evenodd" d="M519.738 634.967L507.358 640.237L437.864 665.716L582.87 966.407L727.048 951.306L730.792 937.439L575.925 615.292L519.738 634.967ZM567.035 625.029L505.683 646.441L541.515 719.543L601.901 695.912L567.035 625.029ZM535.423 721.813L482.322 743.104L447.712 668.375L500.882 648.277L535.423 721.813ZM604.701 702.933L545.775 726.958L581.479 801.983L643.867 783.982L604.701 702.933ZM647.229 790.371L585.699 806.646L621.561 878.19L684.728 867.447L647.229 790.371ZM686.168 873.709L624.193 884.382L655.244 953.452L721.635 946.712L686.168 873.709ZM616.573 885.065L555.861 896.862L586.832 960.429L647.457 953.307L616.573 885.065ZM579.509 809.281L521.024 824.42L552.696 889.743L612.117 878.38L579.509 809.281ZM539.052 728.666L484.857 749.662L519.121 818.425L575.851 803.987L539.052 728.666Z" fill="url(#paint1_linear_151_1714)"/>
<path d="M555.861 896.862L616.573 885.065L647.457 953.307L586.832 960.429L555.861 896.862Z" stroke="#141E4F" stroke-width="2"/>
<path d="M624.193 884.382L686.168 873.709L721.635 946.712L655.244 953.452L624.193 884.382Z" stroke="#141E4F" stroke-width="2"/>
<path d="M521.024 824.42L579.509 809.281L612.117 878.38L552.696 889.743L521.024 824.42Z" stroke="#141E4F" stroke-width="2"/>
<path d="M585.699 806.646L647.229 790.371L684.728 867.447L621.561 878.19L585.699 806.646Z" stroke="#141E4F" stroke-width="2"/>
<path d="M484.857 749.662L539.052 728.666L575.851 803.987L519.121 818.425L484.857 749.662Z" stroke="#141E4F" stroke-width="2"/>
<path d="M545.775 726.958L604.701 702.933L643.867 783.982L581.479 801.983L545.775 726.958Z" stroke="#141E4F" stroke-width="2"/>
<path d="M482.322 743.104L535.423 721.813L500.882 648.277L447.712 668.375L482.322 743.104Z" stroke="#141E4F" stroke-width="2"/>
<path d="M505.683 646.441L567.035 625.029L601.901 695.912L541.515 719.543L505.683 646.441Z" stroke="#141E4F" stroke-width="2"/>
<path d="M289.078 336.989L332.172 302.033L369.671 379.109L324.389 413.474L289.078 336.989Z" stroke="#141E4F" stroke-width="2"/>
<path d="M335.029 291.451L387.418 249.608L352.246 175.51L301.83 224.541L335.029 291.451Z" stroke="#141E4F" stroke-width="2"/>
<path d="M256.608 270.276L296.409 230.124L329.736 295.111L286.15 331.892L256.608 270.276Z" stroke="#141E4F" stroke-width="2"/>
<path d="M299.562 218.447L348.125 170.482L315.575 98.266L268.245 148.913L299.562 218.447Z" stroke="#141E4F" stroke-width="2"/>
<path d="M222.738 200.053L261.769 156.953L294.17 222.473L254.044 265.277L222.738 200.053Z" stroke="#141E4F" stroke-width="2"/>
<path d="M263.029 143.59L312.016 92.6067L280.137 23.7044L231.762 81.1173L263.029 143.59Z" stroke="#141E4F" stroke-width="2"/>
<path d="M190.632 133.439L226.607 87.1644L258.87 150.297L219.642 194.127L190.632 133.439Z" stroke="#141E4F" stroke-width="2"/>
<path fill-rule="evenodd" clip-rule="evenodd" d="M395.231 369.958L382.16 377.783L322.122 421.867L182.973 131.371L278.263 16.151L289.935 19.3025L441.735 333.965L395.231 369.958ZM429.778 336.218L374.865 375.813L337.031 297.081L390.149 255.435L429.778 336.218ZM387.418 249.608L335.029 291.451L301.83 224.541L352.246 175.51L387.418 249.608ZM348.125 170.482L299.562 218.447L268.245 148.913L315.575 98.266L348.125 170.482ZM312.016 92.6067L263.029 143.59L231.762 81.1173L280.137 23.7044L312.016 92.6067ZM226.607 87.1644L190.632 133.439L219.642 194.127L258.87 150.297L226.607 87.1644ZM261.769 156.953L222.738 200.053L254.044 265.277L294.17 222.473L261.769 156.953ZM296.409 230.124L256.608 270.276L286.15 331.892L329.736 295.111L296.409 230.124ZM332.172 302.033L289.078 336.989L324.389 413.474L369.671 379.109L332.172 302.033Z" stroke="#141E4F" stroke-width="2"/>
<path fill-rule="evenodd" clip-rule="evenodd" d="M535.423 721.813L482.322 743.104L447.712 668.375L500.882 648.277L535.423 721.813ZM505.683 646.441L567.035 625.029L601.901 695.912L541.515 719.543L505.683 646.441ZM604.701 702.933L545.775 726.958L581.479 801.983L643.867 783.982L604.701 702.933ZM484.857 749.662L539.052 728.666L575.851 803.987L519.121 818.425L484.857 749.662ZM579.509 809.281L521.024 824.42L552.696 889.743L612.117 878.38L579.509 809.281ZM585.699 806.646L647.229 790.371L684.728 867.447L621.561 878.19L585.699 806.646ZM686.168 873.709L624.193 884.382L655.244 953.452L721.635 946.712L686.168 873.709ZM555.861 896.862L616.573 885.065L647.457 953.307L586.832 960.429L555.861 896.862ZM335.029 291.451L387.418 249.608L352.246 175.51L301.83 224.541L335.029 291.451ZM348.125 170.482L299.562 218.447L268.245 148.913L315.575 98.266L348.125 170.482ZM263.029 143.59L312.016 92.6067L280.137 23.7044L231.762 81.1173L263.029 143.59ZM226.607 87.1644L190.632 133.439L219.642 194.127L258.87 150.297L226.607 87.1644ZM222.738 200.053L261.769 156.953L294.17 222.473L254.044 265.277L222.738 200.053ZM296.409 230.124L256.608 270.276L286.15 331.892L329.736 295.111L296.409 230.124ZM289.078 336.989L332.172 302.033L369.671 379.109L324.389 413.474L289.078 336.989Z" stroke="#141E4F" stroke-width="2"/>
<path d="M374.865 375.813L429.778 336.218L390.149 255.435L337.031 297.081L374.865 375.813Z" stroke="#141E4F" stroke-width="2"/>
<path fill-rule="evenodd" clip-rule="evenodd" d="M519.738 634.967L507.358 640.237L437.864 665.716L582.87 966.407L727.048 951.306L730.792 937.439L575.925 615.292L519.738 634.967ZM567.035 625.029L505.683 646.441L541.515 719.543L601.901 695.912L567.035 625.029ZM535.423 721.813L482.322 743.104L447.712 668.375L500.882 648.277L535.423 721.813ZM604.701 702.933L545.775 726.958L581.479 801.983L643.867 783.982L604.701 702.933ZM647.229 790.371L585.699 806.646L621.561 878.19L684.728 867.447L647.229 790.371ZM686.168 873.709L624.193 884.382L655.244 953.452L721.635 946.712L686.168 873.709ZM616.573 885.065L555.861 896.862L586.832 960.429L647.457 953.307L616.573 885.065ZM579.509 809.281L521.024 824.42L552.696 889.743L612.117 878.38L579.509 809.281ZM539.052 728.666L484.857 749.662L519.121 818.425L575.851 803.987L539.052 728.666Z" stroke="#141E4F" stroke-width="2"/>
<path d="M275.912 582.976L259.503 593.031C252.986 583.833 228.637 584.149 234.949 607.153C237.734 617.301 259.24 621.542 262.402 599.687L280.017 593.872L383.45 557.199C386.823 537.75 374.916 531.795 368.542 531.248L275.912 582.976Z" fill="url(#paint2_linear_151_1714)"/>
<path d="M432.329 613.855C463.062 510.178 374.688 453.976 353.9 452.122C293.964 427.716 227.034 458.194 275.912 582.976L368.542 531.248C374.916 531.795 386.823 537.75 383.45 557.199L280.017 593.872C336.811 702.39 408.19 696.292 432.329 613.855Z" fill="url(#paint3_linear_151_1714)"/>
<path d="M492.547 589.396L407.718 412.231L403.319 415.492L390.295 425.146L353.9 452.122C374.688 453.976 463.062 510.178 432.329 613.855L473.65 597.072L485.518 592.251L492.547 589.396Z" fill="url(#paint4_linear_151_1714)"/>
<path d="M510.131 570.652L543.603 530.75L513.697 469.036L483.79 407.322L433.762 411.433L407.718 412.231L492.547 589.396L510.131 570.652Z" fill="url(#paint5_linear_151_1714)"/>
<path d="M508.112 639.016L485.518 592.251L473.65 597.072L495.731 644.287L508.112 639.016Z" fill="url(#paint6_linear_151_1714)"/>
<path d="M403.319 415.492L386.393 375.693L369.393 387.193L390.295 425.146L403.319 415.492Z" fill="url(#paint7_linear_151_1714)"/>
<path d="M510.131 570.652C576.013 572.467 563.097 498.166 548.405 460.789C548.095 459.515 546.928 455.812 544.736 451.185C522.585 401.04 462.432 358.879 433.762 411.433L483.79 407.322L513.697 469.036L543.603 530.75L510.131 570.652Z" fill="url(#paint8_linear_151_1714)"/>
<path d="M558.35 448.596L544.736 451.185C546.928 455.812 548.095 459.515 548.405 460.789L561.278 453.693C567.904 466.837 587.804 454.2 581.031 441.408C574.258 428.617 553.883 437.601 558.35 448.596Z" fill="url(#paint9_linear_151_1714)"/>
<path d="M544.736 451.185L558.35 448.596C553.883 437.601 574.258 428.617 581.031 441.408C587.804 454.2 567.904 466.837 561.278 453.693L548.405 460.789M544.736 451.185C522.585 401.04 462.432 358.879 433.762 411.433M544.736 451.185C546.928 455.812 548.095 459.515 548.405 460.789M548.405 460.789C563.097 498.166 576.013 572.467 510.131 570.652M510.131 570.652L543.603 530.75L513.697 469.036L483.79 407.322L433.762 411.433M510.131 570.652L492.547 589.396M433.762 411.433L407.718 412.231M407.718 412.231L492.547 589.396M407.718 412.231L403.319 415.492M492.547 589.396L485.518 592.251M432.329 613.855C463.062 510.178 374.688 453.976 353.9 452.122M432.329 613.855C408.19 696.292 336.811 702.39 280.017 593.872M432.329 613.855L473.65 597.072M353.9 452.122C293.964 427.716 227.034 458.194 275.912 582.976M353.9 452.122L390.295 425.146M275.912 582.976L259.503 593.031C252.986 583.833 228.637 584.149 234.949 607.153C237.734 617.301 259.24 621.542 262.402 599.687L280.017 593.872M275.912 582.976L368.542 531.248C374.916 531.795 386.823 537.75 383.45 557.199L280.017 593.872M403.319 415.492L386.393 375.693L369.393 387.193L390.295 425.146M403.319 415.492L390.295 425.146M485.518 592.251L508.112 639.016L495.731 644.287L473.65 597.072M485.518 592.251L473.65 597.072" stroke="#141E4F" stroke-width="2"/>
<defs>
<linearGradient id="paint0_linear_151_1714" x1="575.169" y1="96.3181" x2="356.725" y2="905.346" gradientUnits="userSpaceOnUse">
<stop stop-color="#141E4F"/>
<stop offset="0.230786" stop-color="#E2E3FF"/>
</linearGradient>
<linearGradient id="paint1_linear_151_1714" x1="575.169" y1="96.3181" x2="356.725" y2="905.346" gradientUnits="userSpaceOnUse">
<stop offset="0.802912" stop-color="#E2E3FF"/>
<stop offset="1" stop-color="#141E4F"/>
</linearGradient>
<linearGradient id="paint2_linear_151_1714" x1="580.494" y1="439.635" x2="239.993" y2="607.2" gradientUnits="userSpaceOnUse">
<stop stop-color="#141E4F"/>
<stop offset="0.59137" stop-color="#E2E3FF"/>
</linearGradient>
<linearGradient id="paint3_linear_151_1714" x1="580.494" y1="439.635" x2="239.993" y2="607.2" gradientUnits="userSpaceOnUse">
<stop stop-color="#141E4F"/>
<stop offset="0.59137" stop-color="#E2E3FF"/>
</linearGradient>
<linearGradient id="paint4_linear_151_1714" x1="580.494" y1="439.635" x2="239.993" y2="607.2" gradientUnits="userSpaceOnUse">
<stop stop-color="#141E4F"/>
<stop offset="0.59137" stop-color="#E2E3FF"/>
</linearGradient>
<linearGradient id="paint5_linear_151_1714" x1="580.494" y1="439.635" x2="239.993" y2="607.2" gradientUnits="userSpaceOnUse">
<stop stop-color="#141E4F"/>
<stop offset="0.59137" stop-color="#E2E3FF"/>
</linearGradient>
<linearGradient id="paint6_linear_151_1714" x1="580.494" y1="439.635" x2="239.993" y2="607.2" gradientUnits="userSpaceOnUse">
<stop stop-color="#141E4F"/>
<stop offset="0.59137" stop-color="#E2E3FF"/>
</linearGradient>
<linearGradient id="paint7_linear_151_1714" x1="580.494" y1="439.635" x2="239.993" y2="607.2" gradientUnits="userSpaceOnUse">
<stop stop-color="#141E4F"/>
<stop offset="0.59137" stop-color="#E2E3FF"/>
</linearGradient>
<linearGradient id="paint8_linear_151_1714" x1="580.494" y1="439.635" x2="239.993" y2="607.2" gradientUnits="userSpaceOnUse">
<stop stop-color="#141E4F"/>
<stop offset="0.59137" stop-color="#E2E3FF"/>
</linearGradient>
<linearGradient id="paint9_linear_151_1714" x1="580.494" y1="439.635" x2="239.993" y2="607.2" gradientUnits="userSpaceOnUse">
<stop stop-color="#141E4F"/>
<stop offset="0.59137" stop-color="#E2E3FF"/>
</linearGradient>
</defs>
</svg>
