<svg width="506" height="475" viewBox="0 0 506 475" fill="none" xmlns="http://www.w3.org/2000/svg">
<path d="M184.639 270.198C180.275 255.97 174.706 223.014 187.343 205.014C184.738 198.483 181.845 192.137 178.749 186.014C163.638 210.014 89.1387 240.014 71.652 215.514C71.6403 226.538 73.6615 237.094 78.1387 246.742C138.539 217.724 165.305 257.628 171.139 281.207C175.939 278.25 180.438 274.538 184.639 270.198Z" fill="url(#paint0_radial_151_1717)"/>
<path d="M182.052 183.514C184.462 190.02 187.125 196.229 190.032 202.014C194.827 188.847 209.39 159.614 229.278 148.014C230.384 136.09 230.75 124.591 230.392 114.082C229.307 123.459 198.169 163.732 182.052 183.514Z" fill="url(#paint1_radial_151_1717)"/>
<path d="M166.639 72.4077C163.134 74.2961 159.627 76.3974 156.139 78.6915C155.739 120.034 137.639 110.858 128.639 101.102C126.036 103.654 123.478 106.295 120.975 109.014C135.649 122.037 160.657 150.226 178.749 186.014C181.845 192.137 184.738 198.483 187.343 205.014C193.087 219.418 197.426 234.72 199.432 250.514C203.216 244.185 206.644 237.296 209.722 230.014C202.279 222.927 195.693 213.277 190.032 202.014C187.125 196.229 184.462 190.02 182.052 183.514C169.026 148.342 163.403 104.512 166.639 72.4077Z" fill="url(#paint2_radial_151_1717)"/>
<path d="M249.639 305.2C235.295 298.977 220.064 296.506 208.639 299.426C209.434 303.01 210.357 307.309 211.33 312.014C212.858 319.408 214.507 327.805 215.972 336.014C218.849 352.138 221.012 367.531 220.139 373.147C223.998 375.249 228.034 377.078 232.139 378.61C232.139 360.554 234.524 345.419 237.677 333.531C238.487 330.476 239.348 327.635 240.232 325.014C243.516 315.279 247.121 308.58 249.639 305.2Z" fill="url(#paint3_radial_151_1717)"/>
<path d="M269.734 317.014C269.411 330.225 249.931 327.852 240.232 325.014C239.348 327.635 238.487 330.476 237.677 333.531C253.681 336.359 286.885 346.314 291.665 363.514C295.559 345.547 285.169 328.97 269.734 317.014Z" fill="url(#paint4_radial_151_1717)"/>
<path d="M192.639 312.014C186.946 324.779 187.757 336.455 192.639 346.524C195.861 343.021 205.038 336.014 215.972 336.014C214.507 327.805 212.858 319.408 211.33 312.014C204.282 310.414 202.141 304.68 201.951 302.014C197.854 304.261 194.628 307.552 192.639 312.014Z" fill="url(#paint5_radial_151_1717)"/>
<path d="M222.139 398.19C222.805 406.228 223.739 422.389 222.139 422.729C227.383 421.52 231.048 419.883 233.41 418.014C231.227 418.014 232.002 408.68 232.663 404.014C230.026 401.613 226.336 399.544 222.139 398.19Z" fill="url(#paint6_radial_151_1717)"/>
<path d="M297.639 381.023C301.805 381.758 309.539 392.606 307.139 430.121C315.389 427.189 323.696 423.608 331.139 419.652C312.739 404.963 312.805 384.095 315.139 375.498C309.87 376.61 304.049 378.398 297.639 381.023Z" fill="url(#paint7_radial_151_1717)"/>
<path d="M318.724 285.514C294.793 284.714 254.721 264.18 237.677 254.014C242.748 269.75 254.136 284.55 267.767 294.014C280.362 292.338 306.87 291.289 312.139 300.5C315.275 297.277 317.454 292.021 318.724 285.514Z" fill="url(#paint8_radial_151_1717)"/>
<path d="M314.845 109.014C313.987 116.256 316.588 123.88 324.639 130.014C329.445 133.676 334.595 133.933 339.378 132.02C337.57 128.825 350.713 107.351 357.51 97.0137C356.962 94.8064 356.023 92.7579 354.639 90.9665C340.239 110.929 322.109 111.316 314.845 109.014Z" fill="url(#paint9_radial_151_1717)"/>
<path d="M371.139 55.6635C375.539 60.8274 367.305 76.1887 362.639 83.2239C364.745 85.0787 366.917 86.7381 369.139 88.1406C378.039 78.6422 391.97 76.765 397.823 77.0137C392.464 70.7813 382.018 62.731 371.139 55.6635Z" fill="url(#paint10_radial_151_1717)"/>
<path d="M443.116 293.978C430.201 306.089 412.948 310.829 393.639 294.656C409.263 295.235 440.941 295.905 443.116 293.978Z" fill="url(#paint11_radial_151_1717)"/>
<path d="M465.639 253.851C467.391 246.44 467.491 240.23 465.639 237.014C461.851 233.016 456.19 230.474 449.639 229.509C458.839 239.105 426.805 241.618 409.639 241.676C406.131 244.63 402.911 248.122 400.139 252.172C420.616 246.506 462.384 238.91 465.639 253.851Z" fill="url(#paint12_radial_151_1717)"/>
<path d="M339.378 212.514C331.672 232.78 332.647 256.189 348.639 272.527C356.048 280.097 374.803 263.769 389.058 241.676C370.139 254.014 341.139 224.014 339.378 212.514Z" fill="url(#paint13_radial_151_1717)"/>
<path fill-rule="evenodd" clip-rule="evenodd" d="M205.927 28.2724C204.469 30.984 201.963 32.9257 199.02 33.8304C164.456 44.455 97.1975 83.4865 65.9903 160.678C63.9543 165.714 58.6988 168.76 53.3635 167.74L49.6387 167.027L55.8141 175.555C58.4304 179.168 58.6056 184.004 56.2576 187.797L55.1967 189.511C54.1762 191.159 53.6095 193.048 53.5541 194.986L52.3681 236.487C52.2314 241.269 49.0199 245.414 44.4239 246.741L0.138672 259.527L45.7527 257.48C51.581 257.218 56.5872 261.55 57.6247 267.291C63.7783 301.347 85.7893 364.482 133.799 400.378C137.975 403.501 139.772 408.995 137.865 413.849L119.139 461.527L152.078 423.306C154.862 420.076 159.261 418.745 163.368 419.891L167.927 421.164C173.627 422.754 177.047 428.569 175.667 434.323L175.139 436.527L184.258 431.123C187.037 429.477 190.395 429.133 193.447 430.191C206.606 434.754 229.265 442.646 241.579 446.439C246.072 447.823 249.628 451.633 250.356 456.277L253.139 474.027L256.124 457.104C257.011 452.072 261.203 448.348 266.283 447.796C327.727 441.116 442.877 397.032 468.187 280.237C469.422 274.54 474.668 270.498 480.464 271.118L493.639 272.527L480.737 266.895C476.729 265.145 474.129 261.188 474.329 256.819C474.893 244.551 476.699 226.82 479.639 225.514L504.139 212.027L478.467 205.599C473.572 204.373 470.139 199.974 470.139 194.928V190.444C470.139 188.219 470.814 186.046 472.074 184.212L475.639 179.027L471.811 177.496C468.016 175.978 465.433 172.487 464.672 168.47C453.857 111.395 377.668 25.8013 267.916 22.1483C263.517 22.0019 259.515 19.4039 257.782 15.3582L251.639 1.01367L238.516 19.398C237.29 21.1147 235.597 22.4428 233.638 23.2243L228.99 25.0783C225.92 26.303 222.462 26.0822 219.573 24.477L210.639 19.5137L205.927 28.2724ZM260.139 435.014C242.448 411.131 276.805 389.18 294.139 382.514C295.324 381.989 296.491 381.492 297.639 381.023C304.049 378.398 309.87 376.61 315.139 375.498C342.02 369.824 354.525 381.755 357.639 390.014C360.542 399.693 348.082 410.646 331.139 419.652C323.696 423.608 315.389 427.189 307.139 430.121C285.659 437.754 264.566 440.991 260.139 435.014ZM214.639 424.014C199.639 424.014 176.639 396.514 211.639 396.514C215.275 396.514 218.861 397.134 222.139 398.19C226.336 399.544 230.026 401.613 232.663 404.014C237.432 408.355 238.758 413.781 233.41 418.014C231.048 419.883 227.383 421.52 222.139 422.729C219.927 423.238 217.434 423.671 214.639 424.014ZM141.139 304.014C141.891 312.18 148.144 327.314 167.139 322.514C186.133 317.714 141.139 296.514 141.139 304.014ZM169.639 291.514C166.305 293.847 161.939 299.214 171.139 302.014C182.639 305.514 177.639 289.514 169.639 291.514ZM152.639 333.014C157.805 334.514 165.439 338.614 154.639 343.014C141.139 348.514 147.139 330.536 152.639 333.014ZM114.139 297.514C124.95 312.014 168.639 386.514 91.1387 326.014C58.1387 295.014 71.6387 240.514 114.139 297.514ZM375.139 332.514C370.139 337.68 363.139 349.614 375.139 356.014C390.139 364.014 392.639 320.014 375.139 332.514ZM363.139 335.514C363.305 341.18 360.639 351.514 348.639 347.514C333.639 342.514 357.698 326.014 363.139 335.514ZM357.639 323.014C352.639 320.347 344.939 313.314 354.139 306.514C365.639 298.014 364.139 328.68 357.639 323.014ZM416.139 360.014C400.639 352.514 368.239 382.814 368.639 406.014C368.757 412.851 423.339 382.014 416.139 360.014ZM281.139 175.514C276.972 177.18 272.639 187.514 281.139 187.514C289.639 187.514 288.139 175.514 281.139 175.514ZM258.139 144.514C242.639 139.014 228.039 179.514 251.639 187.514C274.639 187.514 271.639 149.304 258.139 144.514ZM254.139 118.514C247.805 118.014 229.093 125.574 241.139 136.014C248.639 142.514 264.639 119.343 254.139 118.514ZM241.139 109.014C245.639 108.347 252.539 105.014 244.139 97.0137C238.364 91.5137 235.639 109.014 241.139 109.014ZM299.139 97.0137C291.139 97.0137 287.539 106.214 299.139 109.014C309.639 109.014 307.139 97.0137 299.139 97.0137ZM386.139 103.014C381.139 98.3983 351.861 119.666 375.639 136.014C383.639 141.514 405.639 121.014 386.139 103.014ZM405.139 100.014C411.972 98.347 442.469 118.514 433.139 126.014C420.044 136.539 398.139 100.014 405.139 100.014ZM269.139 32.5273C275.139 28.3652 291.139 22.5383 307.139 32.5273C327.139 45.0137 269.139 42.8623 269.139 32.5273ZM328.139 60.5137C318.139 35.0137 267.639 43.0137 273.139 74.5137C276.02 91.0137 330.939 91.3027 328.139 60.5137ZM166.639 72.4077C181.87 64.2008 197.07 60.0158 210.639 61.5137C222.526 62.8259 229.223 84.0299 230.353 113.014C230.429 113.305 230.44 113.663 230.392 114.082C230.75 124.591 230.384 136.09 229.278 148.014C226.738 175.396 220.29 205.015 209.722 230.014C206.644 237.296 203.216 244.185 199.432 250.514C194.993 257.94 190.064 264.593 184.639 270.198C180.438 274.538 175.939 278.25 171.139 281.207C155.422 290.887 136.469 292.476 114.139 281.514C96.1761 272.696 84.5999 260.664 78.1387 246.742C73.6615 237.094 71.6403 226.538 71.652 215.514C71.6897 179.973 92.8555 139.562 120.975 109.014C123.478 106.295 126.036 103.654 128.639 101.102C137.42 92.4914 146.715 84.8883 156.139 78.6915C159.627 76.3974 163.134 74.2961 166.639 72.4077ZM237.677 254.014C230.582 231.998 235.852 208.15 264.639 194.514C305.002 175.394 325.739 249.563 318.724 285.514C317.454 292.021 315.275 297.277 312.139 300.5C309.946 302.754 307.284 304.014 304.139 304.014C292.027 306.075 279.119 301.895 267.767 294.014C254.136 284.55 242.748 269.75 237.677 254.014ZM289.639 370.014C282.969 386.37 256.364 387.654 232.139 378.61C228.034 377.078 223.998 375.249 220.139 373.147C208.219 366.654 197.986 357.553 192.639 346.524C187.757 336.455 186.946 324.779 192.639 312.014C194.628 307.552 197.854 304.261 201.951 302.014C203.981 300.9 206.225 300.043 208.639 299.426C220.064 296.506 235.295 298.977 249.639 305.2C256.745 308.284 263.634 312.288 269.734 317.014C285.169 328.97 295.559 345.547 291.665 363.514C291.199 365.662 290.529 367.831 289.639 370.014ZM425.163 342.514C429.708 329.086 442.627 317.639 452.639 311.514C456.56 311.514 444.68 336.496 435.139 351.019C430.08 358.719 425.678 363.479 424.639 360.014C422.834 353.999 423.278 348.086 425.163 342.514ZM393.639 294.656C392.479 293.685 391.312 292.639 390.139 291.514C389.361 274.97 393.446 261.947 400.139 252.172C402.911 248.122 406.131 244.63 409.639 241.676C421.747 231.477 437.278 227.688 449.639 229.509C456.19 230.474 461.851 233.016 465.639 237.014C467.491 240.23 467.391 246.44 465.639 253.851C462.595 266.726 454.567 283.226 443.139 293.956L443.116 293.978C430.201 306.089 412.948 310.829 393.639 294.656ZM339.378 212.514C349.214 186.651 373.189 165.907 398.139 171.514C415.197 185.413 404.909 217.109 389.058 241.676C374.803 263.769 356.048 280.097 348.639 272.527C332.647 256.189 331.672 232.78 339.378 212.514ZM314.845 109.014C316.671 93.5858 334.188 79.8889 348.139 86.0137C350.932 87.2399 353.071 88.9385 354.639 90.9665C356.023 92.7579 356.962 94.8064 357.51 97.0137C360.637 109.593 351.108 127.33 339.378 132.02C334.595 133.933 329.445 133.676 324.639 130.014C316.588 123.88 313.987 116.256 314.845 109.014ZM362.639 83.2239C349.652 71.7894 339.139 52.9263 334.639 41.0137C334.639 35.2907 353.461 44.1795 371.139 55.6635C382.018 62.731 392.464 70.7813 397.823 77.0137C401.254 81.0039 402.6 84.2489 400.639 86.0137C390.041 95.5512 379.089 94.4221 369.139 88.1406C366.917 86.7381 364.745 85.0787 362.639 83.2239Z" fill="url(#paint14_radial_151_1717)"/>
<path d="M425.163 342.514C423.278 348.086 422.834 353.999 424.639 360.014C425.678 363.479 430.08 358.719 435.139 351.019C429.539 348.223 426.155 344.184 425.163 342.514Z" fill="url(#paint15_radial_151_1717)"/>
<path d="M166.639 72.4077C181.87 64.2008 197.07 60.0158 210.639 61.5137C222.526 62.8259 229.223 84.0299 230.353 113.014M166.639 72.4077C163.134 74.2961 159.627 76.3974 156.139 78.6915M166.639 72.4077C163.403 104.512 169.026 148.342 182.052 183.514M209.722 230.014C206.644 237.296 203.216 244.185 199.432 250.514M209.722 230.014C202.279 222.927 195.693 213.277 190.032 202.014M209.722 230.014C220.29 205.015 226.738 175.396 229.278 148.014M128.639 101.102C137.42 92.4914 146.715 84.8883 156.139 78.6915M128.639 101.102C137.639 110.858 155.739 120.034 156.139 78.6915M128.639 101.102C126.036 103.654 123.478 106.295 120.975 109.014M120.975 109.014C92.8555 139.562 71.6897 179.973 71.652 215.514M120.975 109.014C135.649 122.037 160.657 150.226 178.749 186.014M199.432 250.514C194.993 257.94 190.064 264.593 184.639 270.198M199.432 250.514C197.426 234.72 193.087 219.418 187.343 205.014M184.639 270.198C180.275 255.97 174.706 223.014 187.343 205.014M184.639 270.198C180.438 274.538 175.939 278.25 171.139 281.207M187.343 205.014C184.738 198.483 181.845 192.137 178.749 186.014M171.139 281.207C155.422 290.887 136.469 292.476 114.139 281.514C96.1761 272.696 84.5999 260.664 78.1387 246.742M171.139 281.207C165.305 257.628 138.539 217.724 78.1387 246.742M78.1387 246.742C73.6615 237.094 71.6403 226.538 71.652 215.514M71.652 215.514C89.1387 240.014 163.638 210.014 178.749 186.014M182.052 183.514C184.462 190.02 187.125 196.229 190.032 202.014M182.052 183.514C198.169 163.732 229.307 123.459 230.392 114.082M230.353 113.014C230.429 113.305 230.44 113.663 230.392 114.082M230.353 113.014C230.367 113.369 230.38 113.725 230.392 114.082M190.032 202.014C194.827 188.847 209.39 159.614 229.278 148.014M229.278 148.014C230.384 136.09 230.75 124.591 230.392 114.082M237.677 254.014C230.582 231.998 235.852 208.15 264.639 194.514C305.002 175.394 325.739 249.563 318.724 285.514M237.677 254.014C254.721 264.18 294.793 284.714 318.724 285.514M237.677 254.014C242.748 269.75 254.136 284.55 267.767 294.014M318.724 285.514C317.454 292.021 315.275 297.277 312.139 300.5M267.767 294.014C279.119 301.895 292.027 306.075 304.139 304.014C307.284 304.014 309.946 302.754 312.139 300.5M267.767 294.014C280.362 292.338 306.87 291.289 312.139 300.5M249.639 305.2C235.295 298.977 220.064 296.506 208.639 299.426M249.639 305.2C247.121 308.58 243.516 315.279 240.232 325.014M249.639 305.2C256.745 308.284 263.634 312.288 269.734 317.014M232.139 378.61C256.364 387.654 282.969 386.37 289.639 370.014C290.529 367.831 291.199 365.662 291.665 363.514M232.139 378.61C228.034 377.078 223.998 375.249 220.139 373.147M232.139 378.61C232.139 360.554 234.524 345.419 237.677 333.531M208.639 299.426C206.225 300.043 203.981 300.9 201.951 302.014M208.639 299.426C209.434 303.01 210.357 307.309 211.33 312.014M220.139 373.147C208.219 366.654 197.986 357.553 192.639 346.524M220.139 373.147C221.012 367.531 218.849 352.138 215.972 336.014M192.639 346.524C187.757 336.455 186.946 324.779 192.639 312.014C194.628 307.552 197.854 304.261 201.951 302.014M192.639 346.524C195.861 343.021 205.038 336.014 215.972 336.014M215.972 336.014C214.507 327.805 212.858 319.408 211.33 312.014M201.951 302.014C202.141 304.68 204.282 310.414 211.33 312.014M240.232 325.014C249.931 327.852 269.411 330.225 269.734 317.014M240.232 325.014C239.348 327.635 238.487 330.476 237.677 333.531M269.734 317.014C285.169 328.97 295.559 345.547 291.665 363.514M237.677 333.531C253.681 336.359 286.885 346.314 291.665 363.514M222.139 398.19C218.861 397.134 215.274 396.514 211.639 396.514C176.639 396.514 199.639 424.014 214.639 424.014C217.434 423.671 219.927 423.238 222.139 422.729M222.139 398.19C222.805 406.228 223.739 422.389 222.139 422.729M222.139 398.19C226.336 399.544 230.026 401.613 232.663 404.014M222.139 422.729C227.383 421.52 231.048 419.883 233.41 418.014M232.663 404.014C237.432 408.355 238.758 413.781 233.41 418.014M232.663 404.014C232.002 408.68 231.227 418.014 233.41 418.014M297.639 381.023C296.491 381.492 295.324 381.989 294.139 382.514C276.805 389.18 242.448 411.131 260.139 435.014C264.566 440.991 285.659 437.754 307.139 430.121M297.639 381.023C301.805 381.758 309.539 392.606 307.139 430.121M297.639 381.023C304.049 378.398 309.87 376.61 315.139 375.498M307.139 430.121C315.389 427.189 323.696 423.608 331.139 419.652M315.139 375.498C342.02 369.824 354.525 381.755 357.639 390.014C360.542 399.693 348.082 410.646 331.139 419.652M315.139 375.498C312.805 384.095 312.739 404.963 331.139 419.652M425.163 342.514C429.708 329.086 442.627 317.639 452.639 311.514C456.56 311.514 444.68 336.496 435.139 351.019M425.163 342.514C423.278 348.086 422.834 353.999 424.639 360.014C425.678 363.479 430.08 358.719 435.139 351.019M425.163 342.514C426.155 344.184 429.539 348.223 435.139 351.019M393.639 294.656C392.479 293.685 391.312 292.639 390.139 291.514C389.361 274.97 393.446 261.947 400.139 252.172M393.639 294.656C412.948 310.829 430.201 306.089 443.116 293.978M393.639 294.656C409.263 295.235 440.941 295.905 443.116 293.978M443.139 293.956C454.567 283.226 462.595 266.726 465.639 253.851M443.139 293.956C443.131 293.963 443.123 293.97 443.116 293.978M443.139 293.956L443.116 293.978M400.139 252.172C420.616 246.506 462.384 238.91 465.639 253.851M400.139 252.172C402.911 248.122 406.131 244.63 409.639 241.676M465.639 253.851C467.391 246.44 467.491 240.23 465.639 237.014C461.851 233.016 456.19 230.474 449.639 229.509M409.639 241.676C421.747 231.476 437.278 227.688 449.639 229.509M409.639 241.676C426.805 241.618 458.839 239.105 449.639 229.509M339.378 212.514C349.214 186.651 373.189 165.907 398.139 171.514C415.197 185.413 404.909 217.109 389.058 241.676M339.378 212.514C331.672 232.78 332.647 256.189 348.639 272.527C356.048 280.097 374.803 263.769 389.058 241.676M339.378 212.514C341.139 224.014 370.139 254.014 389.058 241.676M314.845 109.014C316.671 93.5858 334.188 79.8889 348.139 86.0137C350.932 87.2399 353.071 88.9385 354.639 90.9665M314.845 109.014C313.987 116.256 316.588 123.88 324.639 130.014C329.445 133.676 334.595 133.933 339.378 132.02M314.845 109.014C322.109 111.316 340.239 110.929 354.639 90.9665M354.639 90.9665C356.023 92.7579 356.962 94.8064 357.51 97.0137M357.51 97.0137C360.637 109.593 351.108 127.33 339.378 132.02M357.51 97.0137C350.713 107.351 337.57 128.825 339.378 132.02M362.639 83.2239C349.652 71.7894 339.139 52.9263 334.639 41.0137C334.639 35.2907 353.461 44.1795 371.139 55.6635M362.639 83.2239C367.305 76.1887 375.539 60.8274 371.139 55.6635M362.639 83.2239C364.745 85.0787 366.917 86.7381 369.139 88.1406M371.139 55.6635C382.018 62.731 392.464 70.7813 397.823 77.0137M397.823 77.0137C401.254 81.0039 402.6 84.2489 400.639 86.0137C390.041 95.5512 379.089 94.4221 369.139 88.1406M397.823 77.0137C391.97 76.765 378.039 78.6422 369.139 88.1406M49.6387 167.027L53.3635 167.74C58.6988 168.76 63.9543 165.714 65.9903 160.678C97.1975 83.4865 164.456 44.455 199.02 33.8304C201.963 32.9257 204.469 30.984 205.927 28.2724L210.639 19.5137L219.573 24.477C222.462 26.0822 225.92 26.303 228.99 25.0783L233.638 23.2243C235.597 22.4428 237.29 21.1147 238.516 19.398L251.639 1.01367L257.782 15.3582C259.515 19.4039 263.517 22.0019 267.916 22.1483C377.668 25.8013 453.857 111.395 464.672 168.47C465.433 172.487 468.016 175.978 471.811 177.496L475.639 179.027L472.074 184.212C470.814 186.046 470.139 188.219 470.139 190.444V194.928C470.139 199.974 473.572 204.373 478.467 205.599L504.139 212.027L479.639 225.514C476.699 226.82 474.893 244.551 474.329 256.819C474.129 261.188 476.729 265.145 480.737 266.895L493.639 272.527L480.464 271.118C474.668 270.498 469.422 274.54 468.187 280.237C442.877 397.032 327.727 441.116 266.283 447.796C261.203 448.348 257.011 452.072 256.124 457.104L253.139 474.027L250.356 456.277C249.628 451.633 246.072 447.823 241.579 446.439C229.265 442.646 206.606 434.754 193.447 430.191C190.395 429.133 187.037 429.477 184.258 431.123L175.139 436.527L175.667 434.323C177.047 428.569 173.627 422.754 167.927 421.164L163.368 419.891C159.261 418.745 154.862 420.076 152.078 423.306L119.139 461.527L137.865 413.849C139.772 408.995 137.975 403.501 133.799 400.378C85.7893 364.482 63.7783 301.347 57.6247 267.291C56.5872 261.55 51.581 257.218 45.7527 257.48L0.138672 259.527L44.4239 246.741C49.0199 245.414 52.2314 241.269 52.3681 236.487L53.5541 194.986C53.6095 193.048 54.1762 191.159 55.1967 189.511L56.2576 187.797C58.6056 184.004 58.4304 179.168 55.8141 175.555L49.6387 167.027ZM141.139 304.014C141.891 312.18 148.144 327.314 167.139 322.514C186.133 317.714 141.139 296.514 141.139 304.014ZM169.639 291.514C166.305 293.847 161.939 299.214 171.139 302.014C182.639 305.514 177.639 289.514 169.639 291.514ZM152.639 333.014C157.805 334.514 165.439 338.614 154.639 343.014C141.139 348.514 147.139 330.536 152.639 333.014ZM114.139 297.514C124.95 312.014 168.639 386.514 91.1387 326.014C58.1387 295.014 71.6387 240.514 114.139 297.514ZM375.139 332.514C370.139 337.68 363.139 349.614 375.139 356.014C390.139 364.014 392.639 320.014 375.139 332.514ZM363.139 335.514C363.305 341.18 360.639 351.514 348.639 347.514C333.639 342.514 357.698 326.014 363.139 335.514ZM357.639 323.014C352.639 320.347 344.939 313.314 354.139 306.514C365.639 298.014 364.139 328.68 357.639 323.014ZM416.139 360.014C400.639 352.514 368.239 382.814 368.639 406.014C368.757 412.851 423.339 382.014 416.139 360.014ZM281.139 175.514C276.972 177.18 272.639 187.514 281.139 187.514C289.639 187.514 288.139 175.514 281.139 175.514ZM258.139 144.514C242.639 139.014 228.039 179.514 251.639 187.514C274.639 187.514 271.639 149.304 258.139 144.514ZM254.139 118.514C247.805 118.014 229.093 125.574 241.139 136.014C248.639 142.514 264.639 119.343 254.139 118.514ZM241.139 109.014C245.639 108.347 252.539 105.014 244.139 97.0137C238.364 91.5137 235.639 109.014 241.139 109.014ZM299.139 97.0137C291.139 97.0137 287.539 106.214 299.139 109.014C309.639 109.014 307.139 97.0137 299.139 97.0137ZM386.139 103.014C381.139 98.3983 351.861 119.666 375.639 136.014C383.639 141.514 405.639 121.014 386.139 103.014ZM405.139 100.014C411.972 98.347 442.469 118.514 433.139 126.014C420.044 136.539 398.139 100.014 405.139 100.014ZM269.139 32.5273C275.139 28.3652 291.139 22.5383 307.139 32.5273C327.139 45.0137 269.139 42.8623 269.139 32.5273ZM328.139 60.5137C318.139 35.0137 267.639 43.0137 273.139 74.5137C276.02 91.0137 330.939 91.3027 328.139 60.5137Z" stroke="#E2E3FF"/>
<defs>
<radialGradient id="paint0_radial_151_1717" cx="0" cy="0" r="1" gradientUnits="userSpaceOnUse" gradientTransform="translate(267.639 246.514) rotate(89.6222) scale(227.505 242.408)">
<stop stop-color="#E2E3FF"/>
<stop offset="0.0001" stop-color="#141E4F"/>
<stop offset="0.322155" stop-color="#141E4F"/>
<stop offset="1" stop-color="#E2E3FF"/>
</radialGradient>
<radialGradient id="paint1_radial_151_1717" cx="0" cy="0" r="1" gradientUnits="userSpaceOnUse" gradientTransform="translate(267.639 246.514) rotate(89.6222) scale(227.505 242.408)">
<stop stop-color="#E2E3FF"/>
<stop offset="0.0001" stop-color="#141E4F"/>
<stop offset="0.322155" stop-color="#141E4F"/>
<stop offset="1" stop-color="#E2E3FF"/>
</radialGradient>
<radialGradient id="paint2_radial_151_1717" cx="0" cy="0" r="1" gradientUnits="userSpaceOnUse" gradientTransform="translate(267.639 246.514) rotate(89.6222) scale(227.505 242.408)">
<stop stop-color="#E2E3FF"/>
<stop offset="0.0001" stop-color="#141E4F"/>
<stop offset="0.322155" stop-color="#141E4F"/>
<stop offset="1" stop-color="#E2E3FF"/>
</radialGradient>
<radialGradient id="paint3_radial_151_1717" cx="0" cy="0" r="1" gradientUnits="userSpaceOnUse" gradientTransform="translate(267.639 246.514) rotate(89.6222) scale(227.505 242.408)">
<stop stop-color="#E2E3FF"/>
<stop offset="0.0001" stop-color="#141E4F"/>
<stop offset="0.322155" stop-color="#141E4F"/>
<stop offset="1" stop-color="#E2E3FF"/>
</radialGradient>
<radialGradient id="paint4_radial_151_1717" cx="0" cy="0" r="1" gradientUnits="userSpaceOnUse" gradientTransform="translate(267.639 246.514) rotate(89.6222) scale(227.505 242.408)">
<stop stop-color="#E2E3FF"/>
<stop offset="0.0001" stop-color="#141E4F"/>
<stop offset="0.322155" stop-color="#141E4F"/>
<stop offset="1" stop-color="#E2E3FF"/>
</radialGradient>
<radialGradient id="paint5_radial_151_1717" cx="0" cy="0" r="1" gradientUnits="userSpaceOnUse" gradientTransform="translate(267.639 246.514) rotate(89.6222) scale(227.505 242.408)">
<stop stop-color="#E2E3FF"/>
<stop offset="0.0001" stop-color="#141E4F"/>
<stop offset="0.322155" stop-color="#141E4F"/>
<stop offset="1" stop-color="#E2E3FF"/>
</radialGradient>
<radialGradient id="paint6_radial_151_1717" cx="0" cy="0" r="1" gradientUnits="userSpaceOnUse" gradientTransform="translate(267.639 246.514) rotate(89.6222) scale(227.505 242.408)">
<stop stop-color="#E2E3FF"/>
<stop offset="0.0001" stop-color="#141E4F"/>
<stop offset="0.322155" stop-color="#141E4F"/>
<stop offset="1" stop-color="#E2E3FF"/>
</radialGradient>
<radialGradient id="paint7_radial_151_1717" cx="0" cy="0" r="1" gradientUnits="userSpaceOnUse" gradientTransform="translate(267.639 246.514) rotate(89.6222) scale(227.505 242.408)">
<stop stop-color="#E2E3FF"/>
<stop offset="0.0001" stop-color="#141E4F"/>
<stop offset="0.322155" stop-color="#141E4F"/>
<stop offset="1" stop-color="#E2E3FF"/>
</radialGradient>
<radialGradient id="paint8_radial_151_1717" cx="0" cy="0" r="1" gradientUnits="userSpaceOnUse" gradientTransform="translate(267.639 246.514) rotate(89.6222) scale(227.505 242.408)">
<stop stop-color="#E2E3FF"/>
<stop offset="0.0001" stop-color="#141E4F"/>
<stop offset="0.322155" stop-color="#141E4F"/>
<stop offset="1" stop-color="#E2E3FF"/>
</radialGradient>
<radialGradient id="paint9_radial_151_1717" cx="0" cy="0" r="1" gradientUnits="userSpaceOnUse" gradientTransform="translate(267.639 246.514) rotate(89.6222) scale(227.505 242.408)">
<stop stop-color="#E2E3FF"/>
<stop offset="0.0001" stop-color="#141E4F"/>
<stop offset="0.322155" stop-color="#141E4F"/>
<stop offset="1" stop-color="#E2E3FF"/>
</radialGradient>
<radialGradient id="paint10_radial_151_1717" cx="0" cy="0" r="1" gradientUnits="userSpaceOnUse" gradientTransform="translate(267.639 246.514) rotate(89.6222) scale(227.505 242.408)">
<stop stop-color="#E2E3FF"/>
<stop offset="0.0001" stop-color="#141E4F"/>
<stop offset="0.322155" stop-color="#141E4F"/>
<stop offset="1" stop-color="#E2E3FF"/>
</radialGradient>
<radialGradient id="paint11_radial_151_1717" cx="0" cy="0" r="1" gradientUnits="userSpaceOnUse" gradientTransform="translate(267.639 246.514) rotate(89.6222) scale(227.505 242.408)">
<stop stop-color="#E2E3FF"/>
<stop offset="0.0001" stop-color="#141E4F"/>
<stop offset="0.322155" stop-color="#141E4F"/>
<stop offset="1" stop-color="#E2E3FF"/>
</radialGradient>
<radialGradient id="paint12_radial_151_1717" cx="0" cy="0" r="1" gradientUnits="userSpaceOnUse" gradientTransform="translate(267.639 246.514) rotate(89.6222) scale(227.505 242.408)">
<stop stop-color="#E2E3FF"/>
<stop offset="0.0001" stop-color="#141E4F"/>
<stop offset="0.322155" stop-color="#141E4F"/>
<stop offset="1" stop-color="#E2E3FF"/>
</radialGradient>
<radialGradient id="paint13_radial_151_1717" cx="0" cy="0" r="1" gradientUnits="userSpaceOnUse" gradientTransform="translate(267.639 246.514) rotate(89.6222) scale(227.505 242.408)">
<stop stop-color="#E2E3FF"/>
<stop offset="0.0001" stop-color="#141E4F"/>
<stop offset="0.322155" stop-color="#141E4F"/>
<stop offset="1" stop-color="#E2E3FF"/>
</radialGradient>
<radialGradient id="paint14_radial_151_1717" cx="0" cy="0" r="1" gradientUnits="userSpaceOnUse" gradientTransform="translate(267.639 246.514) rotate(89.6222) scale(227.505 242.408)">
<stop stop-color="#E2E3FF"/>
<stop offset="0.0001" stop-color="#141E4F"/>
<stop offset="0.322155" stop-color="#141E4F"/>
<stop offset="1" stop-color="#E2E3FF"/>
</radialGradient>
<radialGradient id="paint15_radial_151_1717" cx="0" cy="0" r="1" gradientUnits="userSpaceOnUse" gradientTransform="translate(267.639 246.514) rotate(89.6222) scale(227.505 242.408)">
<stop stop-color="#E2E3FF"/>
<stop offset="0.0001" stop-color="#141E4F"/>
<stop offset="0.322155" stop-color="#141E4F"/>
<stop offset="1" stop-color="#E2E3FF"/>
</radialGradient>
</defs>
</svg>
