<svg width="565" height="395" viewBox="0 0 565 395" fill="none" xmlns="http://www.w3.org/2000/svg">
<path d="M441.794 269.781C347.794 234.781 233.804 154.059 209.938 24.2815C217.047 21.8616 224.762 19.7743 232.931 18.1353C236.001 24.9755 238.857 31.5707 241.632 37.9787C270.501 104.643 290.599 151.051 450.708 242.281C450.026 245.136 449.275 247.97 448.458 250.781C446.581 257.242 444.352 263.584 441.794 269.781Z" fill="#E2E3FF"/>
<path d="M90.8357 171.281C130.336 267.781 236.431 360.921 304.931 382.421C288.798 385.422 271.877 386.253 254.431 384.562C200.831 348.562 124.431 295.781 87.9315 216.281C87.9315 204.61 88.2479 189.22 90.7272 172.026C90.763 171.778 90.7991 171.53 90.8357 171.281Z" fill="#E2E3FF"/>
<path d="M293.431 15.2203C303.431 59.7203 386.296 150.781 453.796 175.281C454.897 182.827 455.494 190.354 455.615 197.827C455.656 200.318 455.643 202.804 455.579 205.281C380.579 166.781 302.931 90.236 277.931 14.236C281.492 14.3231 285.081 14.5055 288.69 14.7894C289.408 14.8459 290.127 14.9064 290.847 14.971C291.691 15.0468 292.536 15.1282 293.382 15.2152C293.398 15.2169 293.415 15.2186 293.431 15.2203Z" fill="#E2E3FF"/>
<path d="M182.931 36.7815C181.331 111.181 321.257 241.781 433.757 286.781C429.375 294.967 424.395 302.825 418.871 310.281C249.871 248.281 182.931 163.425 153.431 56.4253C162.077 49.4033 171.86 42.8038 182.931 36.7815Z" fill="#8084AC"/>
<path d="M87.9315 216.281C102.885 259.407 158.543 347.493 220.931 378.281C159.08 357.863 87.9315 287.897 87.9315 216.281Z" fill="#8084AC"/>
<path d="M277.931 14.236C302.931 90.236 380.579 166.781 455.579 205.281C455.439 210.669 455.053 216.023 454.431 221.329C398.931 191.829 285.431 99.6851 274.931 14.1851C275.086 14.1866 275.241 14.1883 275.395 14.1901C276.239 14.2001 277.084 14.2153 277.931 14.236Z" fill="#8084AC"/>
<path d="M153.431 56.4253C182.931 163.425 249.871 248.281 418.871 310.281C411.435 320.318 403.015 329.628 393.742 338.033C251.742 282.533 145.753 179.153 116.253 98.6525C125.394 83.787 137.474 69.3866 153.431 56.4253Z" fill="#E2E3FF"/>
<path d="M448.431 150.781C421.685 66.4259 366.893 29.4283 312.431 18.1511M448.431 150.781C450.687 158.457 452.394 166.153 453.579 173.831M448.431 150.781C421.63 66.2554 366.672 29.2789 312.101 18.083M312.431 18.1511C312.321 18.1283 312.211 18.1056 312.101 18.083M312.431 18.1511C312.466 18.2881 312.501 18.4253 312.537 18.5625M453.796 175.281C386.296 150.781 303.431 59.7203 293.431 15.2203M453.796 175.281C453.726 174.798 453.653 174.314 453.579 173.831M453.796 175.281C454.897 182.827 455.494 190.354 455.615 197.827M293.431 15.2203C299.337 15.8296 305.285 16.7162 311.24 17.9086M293.431 15.2203C293.415 15.2186 293.398 15.2169 293.382 15.2152M455.579 205.281C380.579 166.781 302.931 90.236 277.931 14.236M455.579 205.281C455.439 210.669 455.053 216.023 454.431 221.329M455.579 205.281C455.643 202.804 455.656 200.318 455.615 197.827M277.931 14.236C277.084 14.2153 276.239 14.2001 275.395 14.1901M277.931 14.236C281.492 14.3231 285.081 14.5055 288.69 14.7894M274.931 14.1851C285.431 99.6851 398.931 191.829 454.431 221.329M274.931 14.1851C260.186 14.0435 245.979 15.5175 232.931 18.1353M274.931 14.1851C275.086 14.1866 275.241 14.1883 275.395 14.1901M454.431 221.329C453.802 226.7 452.932 232.022 451.83 237.281C451.479 238.955 451.105 240.621 450.708 242.281M252.931 15.1608C246.034 15.8388 239.343 16.849 232.931 18.1353M232.931 18.1353C224.762 19.7743 217.047 21.8616 209.938 24.2815M232.931 18.1353C236.001 24.9755 238.857 31.5707 241.632 37.9787C270.501 104.643 290.599 151.051 450.708 242.281M450.708 242.281C450.026 245.136 449.275 247.97 448.458 250.781M448.458 250.781C315.958 198.781 248.431 126.281 225.931 19.7815M448.458 250.781C446.581 257.242 444.352 263.584 441.794 269.781M441.794 269.781C347.794 234.781 233.804 154.059 209.938 24.2815M441.794 269.781C439.398 275.583 436.714 281.257 433.757 286.781M209.938 24.2815C199.457 27.849 190.293 32.1393 182.931 36.7815M433.757 286.781C321.257 241.781 181.331 111.181 182.931 36.7815M433.757 286.781C429.375 294.967 424.395 302.825 418.871 310.281M182.931 36.7815C171.86 42.8038 162.077 49.4033 153.431 56.4253M182.931 36.7815C203.345 23.9083 237.624 13.7407 275.395 14.1901M182.931 36.7815C117.525 72.3596 97.0633 128.085 90.7272 172.026M418.871 310.281C249.871 248.281 182.931 163.425 153.431 56.4253M418.871 310.281C411.435 320.318 403.015 329.628 393.742 338.033M153.431 56.4253C111.291 90.6533 96.1958 134.918 90.8357 171.281M153.431 56.4253C137.474 69.3866 125.394 83.787 116.253 98.6525C145.753 179.153 251.742 282.533 393.742 338.033M393.742 338.033C388.124 342.803 377.598 351.301 371.431 355.388C351.645 368.501 329.178 377.912 304.931 382.421M90.8357 171.281C130.336 267.781 236.431 360.921 304.931 382.421M90.8357 171.281C90.7991 171.53 90.763 171.778 90.7272 172.026M304.931 382.421C281.628 386.756 256.681 386.564 230.886 380.781M304.931 382.421C288.798 385.422 271.877 386.253 254.431 384.562M87.9315 216.281C124.431 295.781 200.831 348.562 254.431 384.562M87.9315 216.281C102.885 259.407 158.543 347.493 220.931 378.281M87.9315 216.281C87.9315 287.897 159.08 357.863 220.931 378.281M87.9315 216.281C87.9315 204.61 88.2479 189.22 90.7272 172.026M254.431 384.562C249.098 383.969 234.931 381.881 220.931 378.281M254.431 384.562C246.679 383.81 238.822 382.56 230.886 380.781M220.931 378.281C223.095 378.996 224.672 379.333 226.362 379.693C227.688 379.977 229.083 380.275 230.886 380.781M220.931 378.281C348.108 413.658 457.469 312.015 455.615 197.827M312.101 18.083C312.078 18.0782 312.054 18.0734 312.031 18.0686C311.767 18.0147 311.504 17.9613 311.24 17.9086M311.24 17.9086C305.269 16.7129 299.303 15.8246 293.382 15.2152M453.579 173.831C454.818 181.863 455.486 189.875 455.615 197.827M275.395 14.1901C279.785 14.2423 284.222 14.4379 288.69 14.7894M288.69 14.7894C289.408 14.8459 290.127 14.9064 290.847 14.971C291.691 15.0468 292.536 15.1282 293.382 15.2152" stroke="#E2E3FF" stroke-width="2"/>
<path d="M364.432 360.792C558.431 441.292 652.931 368.292 452.932 228.292L450.931 239.292L449.931 242.782L447.431 253.292C522.931 332.292 466.431 332.792 415.431 315.792C299.431 277.126 209.931 224.782 107.431 116.282C60.9312 67.0603 48.9312 12.2822 143.931 66.2822C145.431 64.4489 149.531 60.0822 153.931 57.2822C155.098 55.9557 159.231 52.0006 166.431 46.7924C16.4312 -43.2162 -80.0688 -3.71777 90.4312 168.292C108.263 186.282 203.431 293.985 364.432 360.792Z" fill="url(#paint0_linear_151_1710)"/>
<defs>
<linearGradient id="paint0_linear_151_1710" x1="211.08" y1="370.448" x2="404.493" y2="66.0379" gradientUnits="userSpaceOnUse">
<stop offset="0.235594" stop-color="#141E4F"/>
<stop offset="0.716372" stop-color="#E2E3FF"/>
</linearGradient>
</defs>
</svg>
